<?xml version="1.0" standalone="no"?>
<!DOCTYPE svg PUBLIC "-//W3C//DTD SVG 20010904//EN"
 "http://www.w3.org/TR/2001/REC-SVG-20010904/DTD/svg10.dtd">
<svg version="1.0" xmlns="http://www.w3.org/2000/svg"
 width="480.000000pt" height="480.000000pt" viewBox="0 0 480.000000 480.000000"
 preserveAspectRatio="xMidYMid meet">
<metadata>
Created by potrace 1.14, written by Peter Selinger 2001-2017
</metadata>
<g transform="translate(0.000000,480.000000) scale(0.100000,-0.100000)"
fill="#000000" stroke="none">
<path d="M1708 4406 c-19 -18 -44 -48 -54 -65 -10 -17 -21 -31 -25 -31 -4 0
-12 -15 -20 -32 -7 -18 -19 -37 -26 -41 -23 -14 -66 -111 -65 -146 3 -81 51
-76 142 14 30 30 62 54 71 55 8 0 24 8 35 18 11 9 26 18 34 20 8 2 16 7 18 10
1 4 35 6 75 4 113 -4 127 -6 127 -21 0 -7 6 -11 15 -7 19 7 17 55 22 -579 2
-384 0 -548 -8 -567 -9 -21 -23 -31 -66 -43 -31 -9 -69 -18 -85 -20 -50 -6
-72 -52 -44 -91 14 -18 31 -19 383 -21 202 -2 382 1 398 5 20 6 33 18 40 35
13 38 -13 60 -98 82 -117 30 -106 -25 -108 550 -1 351 -5 504 -13 514 -8 11
-8 13 2 7 9 -5 12 3 12 29 0 20 -4 34 -9 30 -5 -3 -13 0 -17 6 -4 8 -3 9 4 5
7 -4 16 2 21 16 12 33 40 54 84 66 42 12 137 5 137 -10 0 -5 9 -4 19 1 15 9
25 5 52 -20 19 -17 50 -41 69 -54 19 -13 50 -37 67 -53 67 -63 108 -50 100 31
-2 27 -10 52 -16 56 -7 5 -11 12 -9 17 6 20 -128 207 -143 199 -5 -4 -9 0 -9
7 0 19 -50 58 -74 58 -12 0 -48 -14 -80 -30 -46 -24 -61 -28 -72 -19 -11 9
-21 9 -39 1 -16 -7 -26 -8 -30 -1 -4 5 -40 8 -81 7 -57 -1 -74 -5 -70 -15 3
-7 1 -13 -3 -13 -5 0 -11 5 -13 12 -3 9 -66 12 -240 13 -211 1 -238 3 -264 19
-15 11 -46 21 -69 22 -35 3 -46 -1 -77 -30z m1052 4 c0 -5 -2 -10 -4 -10 -3 0
-8 5 -11 10 -3 6 -1 10 4 10 6 0 11 -4 11 -10z m-885 -28 c-3 -3 -11 0 -18 7
-9 10 -8 11 6 5 10 -3 15 -9 12 -12z m-132 -17 c-3 -9 -8 -14 -10 -11 -3 3 -2
9 2 15 9 16 15 13 8 -4z m427 5 c0 -5 -7 -7 -15 -4 -8 4 -15 8 -15 10 0 2 7 4
15 4 8 0 15 -4 15 -10z m480 -4 c0 -23 -16 -27 -17 -5 -1 10 2 19 8 19 5 0 9
-6 9 -14z m-391 -37 c-5 -3 -8 -12 -6 -20 2 -8 2 -11 0 -6 -3 4 -9 4 -15 1 -6
-4 -6 2 1 14 6 11 8 29 5 39 -6 16 -5 15 9 -2 9 -11 11 -22 6 -26z m-569 22
c0 -6 -4 -13 -10 -16 -5 -3 -10 1 -10 9 0 9 5 16 10 16 6 0 10 -4 10 -9z m173
-8 c-7 -2 -19 -2 -25 0 -7 3 -2 5 12 5 14 0 19 -2 13 -5z m87 3 c0 -3 -4 -8
-10 -11 -5 -3 -10 -1 -10 4 0 6 5 11 10 11 6 0 10 -2 10 -4z m30 0 c0 -3 -4
-8 -10 -11 -5 -3 -10 -1 -10 4 0 6 5 11 10 11 6 0 10 -2 10 -4z m470 -6 c0 -5
-2 -10 -4 -10 -3 0 -8 5 -11 10 -3 6 -1 10 4 10 6 0 11 -4 11 -10z m159 -14
c8 -10 9 -16 1 -21 -5 -3 -10 -1 -10 5 0 6 -4 8 -10 5 -5 -3 -10 1 -10 9 0 20
14 21 29 2z m-958 -39 c-13 -13 -15 1 -4 30 7 17 8 17 11 -1 2 -10 -1 -23 -7
-29z m1177 24 c11 -7 11 -9 -2 -14 -9 -4 -16 -1 -16 5 0 7 -5 6 -15 -2 -8 -7
-15 -8 -15 -3 0 22 24 29 48 14z m-488 -11 c0 -5 -2 -10 -4 -10 -3 0 -8 5 -11
10 -3 6 -1 10 4 10 6 0 11 -4 11 -10z m-294 -27 c-10 -10 -19 5 -10 18 6 11 8
11 12 0 2 -7 1 -15 -2 -18z m-116 -15 c0 -6 -7 -5 -15 2 -8 7 -15 17 -15 22 0
6 7 5 15 -2 8 -7 15 -17 15 -22z m235 22 c3 -6 -1 -7 -9 -4 -18 7 -21 14 -7
14 6 0 13 -4 16 -10z m65 -4 c-7 -7 -14 -6 -21 1 -9 9 -7 12 9 10 14 -1 18 -5
12 -11z m412 -13 c-6 -2 -10 -9 -6 -14 3 -5 0 -9 -5 -9 -12 0 -14 13 -4 23 3
4 11 7 17 6 6 0 5 -3 -2 -6z m80 -16 c-12 -6 -22 -16 -22 -23 0 -16 -37 -6
-44 12 -3 8 1 14 9 14 8 0 15 -6 16 -12 0 -7 4 -3 9 9 7 16 14 20 31 16 l23
-6 -22 -10z m-841 -4 c12 -14 12 -16 -1 -8 -8 5 -28 8 -45 8 -29 -1 -29 -1 -5
7 36 12 36 12 51 -7z m725 -11 c-4 -3 -14 2 -24 12 -16 18 -16 18 6 6 13 -6
21 -14 18 -18z m161 -4 c-3 -8 -6 -5 -6 6 -1 11 2 17 5 13 3 -3 4 -12 1 -19z
m-227 2 c0 -5 -4 -10 -10 -10 -5 0 -10 5 -10 10 0 6 5 10 10 10 6 0 10 -4 10
-10z m-791 -36 c-6 -8 -16 -14 -21 -14 -7 0 -6 5 1 13 6 8 8 17 4 21 -4 4 0 4
10 0 14 -5 15 -9 6 -20z m561 6 c0 -5 -2 -10 -4 -10 -3 0 -8 5 -11 10 -3 6 -1
10 4 10 6 0 11 -4 11 -10z m55 0 c3 -5 1 -10 -4 -10 -6 0 -11 5 -11 10 0 6 2
10 4 10 3 0 8 -4 11 -10z m45 0 c0 -5 -2 -10 -4 -10 -3 0 -8 5 -11 10 -3 6 -1
10 4 10 6 0 11 -4 11 -10z m550 -5 c0 -12 -19 -12 -23 0 -4 9 -1 12 9 8 7 -3
14 -7 14 -8z m-110 1 c0 -2 -8 -10 -17 -17 -16 -13 -17 -12 -4 4 13 16 21 21
21 13z m65 -6 c3 -5 1 -10 -4 -10 -6 0 -11 5 -11 10 0 6 2 10 4 10 3 0 8 -4
11 -10z m-1235 -10 c0 -5 -5 -10 -11 -10 -5 0 -7 5 -4 10 3 6 8 10 11 10 2 0
4 -4 4 -10z m1175 -20 c-3 -5 -11 -10 -16 -10 -6 0 -7 5 -4 10 3 6 11 10 16
10 6 0 7 -4 4 -10z m71 -43 c1 -16 -4 -23 -17 -24 -19 -2 -18 6 4 35 12 16 12
16 13 -11z m-840 -33 c-4 -9 -9 -15 -11 -12 -3 3 -3 13 1 22 4 9 9 15 11 12 3
-3 3 -13 -1 -22z m64 -29 c11 -13 10 -14 -4 -9 -9 3 -16 10 -16 15 0 13 6 11
20 -6z m170 -25 c0 -5 -5 -10 -11 -10 -5 0 -7 5 -4 10 3 6 8 10 11 10 2 0 4
-4 4 -10z m117 -5 c0 -8 -4 -15 -9 -15 -10 0 -11 14 -1 23 9 10 10 9 10 -8z
m-207 -105 c0 -5 -2 -10 -4 -10 -3 0 -8 5 -11 10 -3 6 -1 10 4 10 6 0 11 -4
11 -10z m35 -40 c3 -5 2 -10 -4 -10 -5 0 -13 5 -16 10 -3 6 -2 10 4 10 5 0 13
-4 16 -10z m-174 -47 c13 -16 12 -17 -3 -4 -10 7 -18 15 -18 17 0 8 8 3 21
-13z"/>
<path d="M1100 4420 c0 -6 -6 -10 -12 -9 -25 3 -38 -1 -38 -12 0 -8 5 -8 15 1
13 10 15 9 15 -10 0 -13 -3 -20 -7 -17 -3 4 -14 0 -23 -8 -16 -14 -18 -14 -24
0 -4 11 -2 14 7 10 6 -4 3 1 -7 9 -26 21 -39 20 -61 -4 -10 -11 -25 -20 -34
-20 -14 1 -13 2 2 11 36 21 13 26 -115 22 -155 -3 -170 -3 -222 0 -26 1 -41
-3 -44 -12 -3 -8 0 -11 7 -7 6 4 11 2 11 -3 0 -18 -46 -12 -70 9 -17 15 -27
17 -41 10 -10 -6 -16 -16 -13 -24 3 -7 -2 -16 -10 -19 -11 -5 -15 0 -13 15 1
11 -5 23 -13 25 -12 4 -12 3 -1 -5 8 -6 9 -12 3 -16 -6 -3 -14 -1 -17 5 -4 5
-14 8 -22 5 -8 -3 -11 -1 -8 4 3 6 2 10 -3 10 -14 0 -33 -26 -25 -33 3 -4 2
-7 -3 -7 -6 0 -16 6 -22 12 -10 10 -15 10 -21 -1 -5 -7 -14 -10 -20 -6 -9 5
-7 11 6 21 10 7 14 14 8 14 -5 1 -19 3 -30 5 -11 3 -35 0 -53 -5 -23 -6 -40
-5 -53 3 -27 17 -34 2 -10 -22 25 -25 39 -73 23 -79 -14 -4 -6 -22 9 -22 6 0
8 4 4 9 -3 6 3 9 13 8 13 -1 18 -7 14 -19 -2 -10 2 -20 12 -24 9 -3 16 -15 16
-26 0 -11 8 -22 20 -25 11 -3 20 -10 20 -15 0 -6 -6 -8 -14 -5 -21 8 -23 -4
-25 -145 -2 -125 -2 -126 21 -131 l23 -4 -22 -8 c-16 -5 -23 -15 -23 -32 0
-20 4 -24 17 -19 17 6 17 5 1 -8 -23 -17 -25 -68 -3 -60 8 4 15 1 15 -5 0 -6
-6 -11 -12 -11 -16 0 -23 -216 -8 -225 6 -3 10 -11 10 -16 0 -6 -4 -7 -10 -4
-6 4 -9 -50 -9 -154 1 -89 6 -161 10 -161 5 0 9 -5 9 -11 0 -5 -5 -7 -10 -4
-7 5 -10 -16 -9 -62 2 -84 -16 -125 -58 -128 -58 -5 -112 -25 -118 -45 -9 -29
21 -67 58 -73 18 -3 255 -6 527 -7 483 0 496 -1 523 -21 20 -15 36 -19 57 -14
36 8 121 98 185 197 26 40 56 85 66 99 10 15 21 39 25 53 3 14 10 29 15 32 16
10 9 64 -10 83 -26 26 -49 18 -113 -38 -145 -125 -225 -163 -388 -179 -104
-11 -232 -8 -254 5 -6 4 -16 8 -23 9 -20 3 -61 38 -72 62 -6 12 -14 54 -17 92
-4 39 -11 70 -15 70 -5 0 -9 5 -9 11 0 5 5 7 11 4 7 -5 10 22 9 82 -1 121 12
189 42 220 24 23 31 25 136 24 87 -1 123 -6 163 -21 57 -23 146 -79 174 -110
20 -22 46 -25 77 -9 16 9 19 17 13 46 -15 80 -111 256 -126 232 -5 -8 -10 1
-14 24 -4 22 -11 34 -18 30 -6 -3 -7 -1 -3 5 9 14 -53 71 -77 72 -26 0 -57
-18 -57 -34 0 -15 -23 -28 -55 -32 -53 -6 -173 -5 -198 1 -18 5 -33 2 -45 -6
-15 -12 -16 -12 -5 2 9 11 10 25 2 54 -16 58 -8 196 13 219 9 10 15 23 14 30
-2 6 -1 8 1 3 3 -4 17 1 31 11 15 11 40 22 57 26 16 4 33 13 37 19 6 9 8 9 8
0 0 -7 12 -13 26 -13 21 0 25 4 21 20 -3 11 -1 20 4 20 5 0 9 -4 9 -8 0 -15
57 -30 75 -19 13 7 16 6 10 -3 -5 -8 -1 -11 11 -10 11 1 21 1 24 0 3 -1 16 -4
30 -7 38 -7 55 -11 58 -13 1 -2 5 -3 10 -4 11 -2 74 -35 107 -57 17 -10 38
-22 47 -25 10 -3 20 -14 23 -23 14 -45 104 -63 119 -25 8 20 -11 84 -24 84 -5
0 -7 7 -4 15 4 8 1 15 -5 15 -6 0 -11 7 -11 15 0 8 -5 15 -11 15 -5 0 -8 4 -4
9 3 6 0 13 -7 18 -7 4 -13 14 -13 22 0 8 -6 16 -14 19 -8 3 -11 0 -7 -7 4 -6
2 -11 -4 -11 -6 0 -10 8 -7 18 6 27 -22 75 -40 68 -11 -5 -14 -2 -9 10 4 11
-7 29 -35 55 -39 37 -79 51 -79 29z m-847 -57 c5 -26 4 -26 -9 -9 -7 10 -11
23 -8 27 8 14 11 11 17 -18z m367 -8 c0 -8 -7 -15 -15 -15 -13 0 -14 3 -3 15
16 18 18 18 18 0z m66 -20 c-3 -8 -11 -15 -18 -14 -10 0 -10 2 0 6 6 2 12 14
13 26 0 12 3 16 6 9 3 -7 2 -19 -1 -27z m318 19 c3 -8 2 -12 -4 -9 -6 3 -10
10 -10 16 0 14 7 11 14 -7z m-809 -43 c-10 -9 -24 21 -17 37 4 12 7 10 14 -8
5 -13 6 -25 3 -29z m195 39 c0 -5 -5 -10 -11 -10 -5 0 -7 5 -4 10 3 6 8 10 11
10 2 0 4 -4 4 -10z m114 -5 c-4 -8 -11 -12 -16 -9 -6 4 -5 10 3 15 19 12 19
11 13 -6z m236 -5 c0 -5 -2 -10 -4 -10 -3 0 -8 5 -11 10 -3 6 -1 10 4 10 6 0
11 -4 11 -10z m-425 -10 c3 -5 1 -10 -4 -10 -6 0 -11 5 -11 10 0 6 2 10 4 10
3 0 8 -4 11 -10z m220 -18 c-8 -8 -25 10 -19 20 4 6 9 5 15 -3 4 -7 6 -15 4
-17z m537 -10 c-6 -16 -7 -16 -10 1 -2 9 -10 17 -17 17 -8 0 -16 4 -20 10 -3
5 6 5 24 -1 22 -8 28 -15 23 -27z m-709 11 c-3 -7 -11 -13 -17 -13 -7 0 -13 6
-13 13 0 7 8 13 18 13 9 0 15 -6 12 -13z m517 -27 c0 -5 -7 -3 -15 4 -8 7 -21
10 -29 7 -12 -5 -14 3 -7 31 2 6 50 -34 51 -42z m292 30 c7 4 8 2 4 -5 -4 -6
0 -18 8 -27 9 -9 13 -20 10 -26 -4 -5 -13 4 -21 21 -9 17 -23 31 -32 31 -14 0
-14 2 -1 10 10 6 16 6 18 0 2 -6 9 -7 14 -4z m-402 -6 c0 -5 -4 -10 -10 -10
-5 0 -10 5 -10 10 0 6 5 10 10 10 6 0 10 -4 10 -10z m-160 -10 c0 -5 -4 -10
-10 -10 -5 0 -10 5 -10 10 0 6 5 10 10 10 6 0 10 -4 10 -10z m-310 -11 c0 -5
-5 -7 -11 -4 -6 4 -13 -2 -16 -14 -3 -12 -9 -21 -13 -21 -5 0 -11 -8 -13 -17
-4 -14 -5 -12 -6 5 0 12 3 22 8 22 5 0 11 9 14 20 5 20 37 29 37 9z m434 -14
c3 -8 1 -17 -4 -20 -6 -4 -10 1 -10 9 0 9 -4 16 -10 16 -5 0 -10 4 -10 10 0
13 27 1 34 -15z m-244 -18 c0 -8 -3 -8 -9 2 -7 10 -12 8 -24 -9 -10 -15 -16
-18 -19 -8 -3 7 4 18 16 25 23 12 36 9 36 -10z m-139 -31 c-8 -9 -18 -13 -24
-9 -6 4 -8 -2 -5 -15 8 -29 -10 -28 -21 1 -5 14 -4 25 3 29 6 5 7 8 1 8 -5 0
-1 7 10 15 17 13 21 13 34 1 12 -12 12 -18 2 -30z m564 34 c3 -5 -3 -10 -14
-10 -11 0 -23 5 -26 10 -3 6 3 10 14 10 11 0 23 -4 26 -10z m325 -6 c0 -8 -4
-12 -10 -9 -5 3 -10 10 -10 16 0 5 5 9 10 9 6 0 10 -7 10 -16z m-325 -24 c3
-5 1 -10 -4 -10 -6 0 -11 5 -11 10 0 6 2 10 4 10 3 0 8 -4 11 -10z m-448 -22
c-3 -8 -6 -5 -6 6 -1 11 2 17 5 13 3 -3 4 -12 1 -19z m733 12 c0 -5 -5 -10
-11 -10 -5 0 -7 5 -4 10 3 6 8 10 11 10 2 0 4 -4 4 -10z m80 -30 c-24 -15 -31
-11 -18 10 9 13 16 16 23 9 7 -7 5 -13 -5 -19z m-909 -3 c-10 -9 -11 -8 -5 6
3 10 9 15 12 12 3 -3 0 -11 -7 -18z m296 17 c-3 -3 -12 -4 -19 -1 -8 3 -5 6 6
6 11 1 17 -2 13 -5z m458 -4 c-3 -5 -11 -10 -16 -10 -6 0 -7 5 -4 10 3 6 11
10 16 10 6 0 7 -4 4 -10z m-508 -22 c-3 -8 -6 -5 -6 6 -1 11 2 17 5 13 3 -3 4
-12 1 -19z m618 1 c11 -17 -1 -21 -15 -4 -8 9 -8 15 -2 15 6 0 14 -5 17 -11z
m-645 -9 c0 -5 -5 -10 -11 -10 -5 0 -7 5 -4 10 3 6 8 10 11 10 2 0 4 -4 4 -10z
m-296 -18 c3 -5 -1 -9 -9 -9 -8 0 -12 4 -9 9 3 4 7 8 9 8 2 0 6 -4 9 -8z m86
-32 c0 -22 -4 -40 -9 -40 -5 0 -8 18 -7 40 1 52 16 52 16 0z m205 11 c-3 -6
-11 -11 -17 -11 -6 0 -6 6 2 15 14 17 26 13 15 -4z m-250 -11 c-3 -5 -14 -10
-23 -10 -15 0 -15 2 -2 10 20 13 33 13 25 0z m141 -12 c4 -6 3 -8 -2 -5 -6 3
-16 -8 -23 -24 -7 -16 -17 -27 -22 -23 -5 3 0 19 11 35 24 33 26 34 36 17z
m821 6 c-3 -3 -12 -4 -19 -1 -8 3 -5 6 6 6 11 1 17 -2 13 -5z m-970 -54 c-3
-11 -2 -20 1 -20 4 0 14 -11 23 -23 16 -21 16 -23 -1 -23 -10 0 -16 5 -13 12
2 6 -3 17 -12 24 -12 10 -18 10 -30 0 -22 -18 -18 -5 8 24 27 31 31 32 24 6z
m66 -20 c-21 -24 -18 -24 -34 -3 -8 9 -9 14 -4 11 6 -4 17 -3 25 3 25 15 31
10 13 -11z m91 -15 c-4 -8 -8 -15 -10 -15 -2 0 -4 7 -4 15 0 8 4 15 10 15 5 0
7 -7 4 -15z m-84 -50 c-6 -8 -8 -20 -4 -26 4 -7 3 -9 -4 -5 -15 9 -10 46 6 46
12 0 12 -3 2 -15z m80 -9 c0 -3 -4 -8 -10 -11 -5 -3 -10 -1 -10 4 0 6 5 11 10
11 6 0 10 -2 10 -4z m65 -16 c3 -6 -4 -10 -17 -10 -18 0 -20 2 -8 10 19 12 18
12 25 0z m-131 -36 c3 -8 2 -12 -4 -9 -6 3 -10 10 -10 16 0 14 7 11 14 -7z
m61 -14 c3 -5 1 -10 -4 -10 -6 0 -11 5 -11 10 0 6 2 10 4 10 3 0 8 -4 11 -10z
m-25 -29 c0 -18 -18 -21 -30 -6 -10 13 -9 15 9 15 11 0 21 -4 21 -9z m605 -1
c3 -6 -4 -10 -17 -10 -18 0 -20 2 -8 10 19 12 18 12 25 0z m-1 -45 c-4 -8 -11
-12 -17 -8 -8 5 -7 8 1 11 7 2 9 9 6 14 -4 7 -2 8 4 4 6 -4 9 -13 6 -21z
m-719 5 c3 -5 1 -10 -4 -10 -6 0 -11 5 -11 10 0 6 2 10 4 10 3 0 8 -4 11 -10z
m542 -6 c-3 -3 -12 -4 -19 -1 -8 3 -5 6 6 6 11 1 17 -2 13 -5z m-27 -25 c0 11
4 11 18 -2 10 -10 24 -17 30 -17 7 0 12 -4 12 -9 0 -4 -11 -6 -25 -3 -14 2
-25 8 -25 13 0 5 -5 8 -11 7 -6 -2 -14 4 -16 12 -4 13 -3 13 6 0 9 -12 11 -12
11 -1z m90 -19 c0 -5 -4 -10 -10 -10 -5 0 -10 5 -10 10 0 6 5 10 10 10 6 0 10
-4 10 -10z m-417 -19 c4 -17 2 -18 -14 -8 -22 14 -25 27 -5 27 7 0 16 -9 19
-19z m-26 -47 c-3 -3 -12 -4 -19 -1 -8 3 -5 6 6 6 11 1 17 -2 13 -5z m-237
-44 c0 -5 -5 -10 -11 -10 -5 0 -7 5 -4 10 3 6 8 10 11 10 2 0 4 -4 4 -10z
m306 -187 c-10 -10 -19 5 -10 18 6 11 8 11 12 0 2 -7 1 -15 -2 -18z m-253 -8
c-3 -9 -8 -14 -10 -11 -3 3 -2 9 2 15 9 16 15 13 8 -4z m42 -64 c3 -5 1 -12
-5 -16 -5 -3 -10 1 -10 9 0 18 6 21 15 7z m155 -111 c0 -5 -8 -10 -17 -10 -15
0 -16 2 -3 10 19 12 20 12 20 0z m-183 -52 c-3 -8 -6 -5 -6 6 -1 11 2 17 5 13
3 -3 4 -12 1 -19z m-4 -51 c-3 -5 -10 -4 -15 1 -6 6 -7 16 -3 22 6 9 9 9 16
-1 4 -7 5 -17 2 -22z m155 13 c15 0 15 -2 2 -10 -15 -9 -30 4 -29 25 0 6 3 4
6 -2 2 -7 12 -13 21 -13z m-88 0 c0 -5 -2 -10 -4 -10 -3 0 -8 5 -11 10 -3 6
-1 10 4 10 6 0 11 -4 11 -10z m-45 -49 c3 -5 1 -12 -5 -16 -5 -3 -10 1 -10 9
0 18 6 21 15 7z m245 -1 c0 -5 -2 -10 -4 -10 -3 0 -8 5 -11 10 -3 6 -1 10 4
10 6 0 11 -4 11 -10z m-178 -42 c-8 -8 -9 -4 -5 13 4 13 8 18 11 10 2 -7 -1
-18 -6 -23z m-85 -24 c-3 -3 -12 -4 -19 -1 -8 3 -5 6 6 6 11 1 17 -2 13 -5z
m-57 -79 c0 -2 -9 -3 -19 -2 -11 0 -18 5 -15 9 4 6 34 0 34 -7z m-33 -57 c-3
-8 -6 -5 -6 6 -1 11 2 17 5 13 3 -3 4 -12 1 -19z m251 -3 c-3 -3 -9 2 -12 12
-6 14 -5 15 5 6 7 -7 10 -15 7 -18z"/>
<path d="M325 4251 c-3 -5 -1 -12 5 -16 5 -3 10 1 10 9 0 18 -6 21 -15 7z"/>
<path d="M316 4391 c-17 -6 -17 -8 -4 -14 10 -3 19 0 22 9 3 8 4 14 3 13 -1 0
-11 -4 -21 -8z"/>
<path d="M510 4390 c0 -5 7 -10 15 -10 8 0 15 5 15 10 0 6 -7 10 -15 10 -8 0
-15 -4 -15 -10z"/>
<path d="M3104 4391 c-30 -5 -44 -21 -44 -52 0 -27 30 -56 44 -42 3 3 6 2 6
-4 0 -5 13 -10 30 -11 34 -1 77 -29 86 -57 4 -10 7 -113 7 -227 0 -216 0 -216
40 -209 5 1 6 -3 2 -8 -3 -6 -13 -7 -22 -4 -11 4 -14 3 -9 -5 4 -7 3 -12 -2
-12 -5 0 -9 -150 -10 -356 -1 -388 -1 -389 -59 -412 -15 -6 -47 -16 -69 -22
-23 -5 -45 -17 -48 -26 -10 -26 16 -67 49 -76 36 -10 616 -9 665 1 25 5 37 14
44 34 13 36 -10 60 -73 76 -58 15 -89 45 -101 97 -8 35 -12 218 -11 449 1 90
1 91 32 109 23 13 46 17 97 15 37 -2 74 -7 82 -11 29 -14 147 -38 189 -38 41
0 109 27 143 57 15 14 19 14 33 0 16 -17 21 -32 6 -23 -5 3 -9 -70 -10 -165
-2 -138 1 -169 11 -163 10 6 10 5 2 -7 -7 -8 -14 -66 -16 -132 -5 -145 -16
-164 -103 -187 -40 -11 -61 -23 -70 -39 -12 -23 -10 -60 4 -62 3 0 15 -3 26
-7 11 -3 137 -7 280 -8 236 -2 261 -1 267 14 6 15 7 15 7 -1 1 -14 9 -17 40
-16 33 2 37 5 33 23 -5 20 -4 20 15 4 24 -22 40 -23 59 -3 21 21 13 50 -13 49
-18 0 -20 3 -13 17 10 18 -5 29 -39 29 -25 0 -71 23 -71 36 0 6 -6 17 -13 23
-8 6 -12 23 -9 39 3 22 -2 31 -20 40 -22 12 -22 12 -1 8 21 -4 21 -2 22 160 1
136 -1 163 -13 158 -8 -3 -17 0 -21 6 -3 6 -3 10 2 9 30 -5 33 3 33 102 0 64
-4 98 -10 94 -5 -3 -10 -1 -10 4 0 6 5 11 10 11 14 0 12 64 -2 78 -9 9 -9 12
0 12 19 0 14 48 -5 53 -17 4 -17 5 0 6 13 1 17 10 17 47 0 44 -1 46 -25 42
-14 -3 -25 -1 -25 3 0 8 21 13 41 11 3 -1 7 42 8 94 1 77 -1 95 -14 100 -8 3
-15 11 -15 16 0 6 5 6 14 -1 12 -10 14 -6 16 24 0 19 2 45 3 58 1 23 22 43 67
64 17 8 20 12 8 12 -11 1 -15 7 -11 19 5 22 53 18 53 -4 0 -24 30 -15 40 12
12 30 3 74 -15 74 -16 0 -30 -33 -16 -38 21 -7 11 -22 -14 -22 -14 0 -25 5
-25 10 0 18 -22 11 -27 -9 -5 -19 -46 -33 -70 -24 -22 9 -3 23 21 17 18 -4 28
1 40 18 15 20 18 21 39 9 12 -7 19 -10 15 -6 -4 4 -3 16 3 27 9 17 8 18 -9 9
-15 -8 -22 -8 -25 2 -4 9 -6 9 -6 0 -1 -7 -5 -13 -11 -13 -5 0 -6 8 -3 18 6
15 5 15 -10 4 -23 -19 -88 -22 -105 -5 -10 10 -18 11 -25 4 -15 -15 -30 -14
-21 1 4 7 3 8 -5 4 -6 -4 -9 -12 -6 -17 4 -5 1 -9 -4 -9 -6 0 -11 -6 -11 -13
0 -18 34 -49 43 -40 4 3 7 1 7 -6 0 -7 4 -10 9 -6 5 3 12 1 15 -4 4 -5 2 -12
-3 -16 -6 -3 -8 -11 -5 -18 2 -7 -8 -18 -23 -25 -19 -8 -21 -10 -5 -6 14 4 21
1 20 -6 -2 -7 11 -19 28 -29 17 -9 29 -22 26 -29 -6 -19 -32 -14 -32 7 0 31
-29 34 -41 4 -9 -25 -10 -26 -23 -7 -8 11 -12 32 -11 47 2 15 -1 25 -6 22 -5
-4 -6 8 -2 26 4 23 3 30 -5 25 -7 -4 -12 -2 -12 4 0 6 -9 10 -20 8 -12 -2 -20
-7 -20 -12 1 -5 -4 -13 -12 -17 -10 -6 -10 -13 -2 -26 15 -23 36 -29 27 -7 -4
12 -2 15 8 12 7 -2 15 -18 16 -34 1 -18 -1 -24 -6 -16 -6 10 -10 10 -21 -3
-16 -19 -41 -20 -34 0 4 8 -1 17 -9 21 -18 6 -59 -25 -50 -39 3 -6 1 -7 -5 -3
-7 4 -12 1 -12 -6 0 -15 51 -19 61 -5 3 5 9 0 11 -11 5 -18 2 -19 -22 -12 -33
9 -41 5 -32 -18 5 -16 4 -16 -11 0 -9 9 -17 20 -17 24 0 4 -7 16 -17 26 -9 10
-13 21 -9 25 4 4 11 1 15 -6 6 -9 11 -10 15 -2 4 6 4 11 0 11 -3 0 -1 7 6 15
10 12 10 18 -1 31 -12 14 -11 16 6 12 11 -2 19 -8 18 -14 -1 -5 10 -9 23 -9
20 0 24 5 24 28 0 15 -5 27 -11 27 -5 0 -7 -6 -3 -12 5 -9 3 -9 -9 1 -9 7 -14
17 -11 23 3 5 1 14 -5 21 -7 10 -3 13 16 15 14 1 31 -5 38 -14 18 -25 69 -11
60 16 -4 12 -2 20 4 20 6 0 11 4 11 10 0 5 -16 9 -35 8 -19 -1 -38 1 -41 5 -3
3 -17 2 -30 -3 -15 -6 -26 -5 -30 2 -5 7 -15 1 -30 -17 -13 -16 -26 -27 -29
-23 -3 3 1 13 10 21 8 9 12 17 8 20 -5 2 -51 3 -103 2 -163 -4 -160 -3 -169
-27 -12 -33 -3 -57 20 -51 12 4 19 0 19 -10 0 -25 40 -28 72 -4 16 12 24 23
19 25 -17 6 -13 22 5 22 9 0 14 -7 13 -17 -2 -10 3 -28 10 -41 10 -18 10 -26
0 -38 -6 -8 -7 -14 -3 -14 5 0 15 -9 22 -21 8 -12 9 -18 3 -14 -6 3 -11 -1
-11 -9 0 -9 7 -16 16 -16 13 0 14 -3 5 -14 -7 -8 -11 -46 -10 -97 1 -46 -1
-96 -6 -111 -5 -22 -3 -29 11 -35 16 -6 16 -7 -2 -13 -10 -4 -22 -3 -25 3 -4
5 -17 -1 -30 -14 -23 -23 -119 -45 -119 -27 0 5 -4 6 -10 3 -5 -3 -33 1 -62 9
-112 32 -216 37 -268 13 -19 -9 -42 -17 -50 -19 -8 -2 -18 -7 -22 -13 -4 -5
-8 0 -8 13 0 13 4 20 10 17 6 -4 10 41 10 127 0 73 5 151 11 173 6 22 11 45
11 52 1 7 4 10 8 8 4 -2 25 5 46 15 21 11 44 18 51 15 7 -2 13 0 13 6 0 6 4 8
9 5 4 -3 16 3 26 14 15 17 16 24 5 50 -8 19 -20 30 -34 31 -54 3 -655 4 -672
0z m1310 -33 l16 -22 0 22 c0 12 4 22 10 22 5 0 6 -9 2 -21 -5 -11 -11 -20
-15 -20 -13 1 -47 26 -47 33 0 16 19 7 34 -14z m-1284 2 c0 -5 -2 -10 -4 -10
-3 0 -8 5 -11 10 -3 6 -1 10 4 10 6 0 11 -4 11 -10z m199 -9 c10 -7 7 -9 -12
-8 -14 1 -23 5 -20 10 6 9 15 9 32 -2z m1305 -5 c-10 -8 -21 -12 -24 -10 -5 6
21 24 34 24 6 0 1 -6 -10 -14z m-519 -6 c3 -5 2 -10 -4 -10 -5 0 -13 5 -16 10
-3 6 -2 10 4 10 5 0 13 -4 16 -10z m187 -12 c-7 -7 -12 -8 -12 -2 0 6 3 14 7
17 3 4 9 5 12 2 2 -3 -1 -11 -7 -17z m248 12 c0 -5 -7 -10 -16 -10 -8 0 -12 5
-9 10 3 6 10 10 16 10 5 0 9 -4 9 -10z m-287 -20 c-4 -16 -8 -18 -19 -9 -8 6
-21 9 -29 5 -8 -3 -15 -1 -15 4 0 5 12 11 28 13 15 2 30 5 34 6 3 0 4 -8 1
-19z m-723 -20 c-8 -5 -19 -9 -25 -9 -5 0 -4 3 3 6 6 2 12 12 12 21 0 13 3 13
12 4 10 -10 10 -15 -2 -22z m71 -13 c-10 -9 -11 -8 -5 6 3 10 9 15 12 12 3 -3
0 -11 -7 -18z m686 -3 c-9 -9 -28 6 -21 18 4 6 10 6 17 -1 6 -6 8 -13 4 -17z
m303 6 c0 -5 7 -10 15 -10 9 0 12 -6 9 -15 -4 -8 -10 -12 -15 -9 -6 3 -16 0
-24 -6 -9 -8 -15 -8 -15 -2 0 6 6 13 13 16 9 5 9 7 -1 12 -6 3 -10 10 -6 15 7
12 24 12 24 -1z m-376 -52 c7 -5 6 -8 -5 -8 -22 0 -28 8 -21 33 6 21 6 21 10
2 2 -11 9 -23 16 -27z m81 2 c-3 -5 -12 -10 -18 -10 -7 0 -6 4 3 10 19 12 23
12 15 0z m-40 -10 c3 -5 2 -10 -4 -10 -5 0 -13 5 -16 10 -3 6 -2 10 4 10 5 0
13 -4 16 -10z m95 -34 c0 -3 -4 -8 -10 -11 -5 -3 -10 -1 -10 4 0 6 5 11 10 11
6 0 10 -2 10 -4z m80 -37 c0 -6 -4 -7 -10 -4 -5 3 -10 11 -10 16 0 6 5 7 10 4
6 -3 10 -11 10 -16z m-210 -14 c7 -9 8 -15 2 -15 -5 0 -12 7 -16 15 -3 8 -4
15 -2 15 2 0 9 -7 16 -15z m320 -6 c0 -6 -4 -7 -10 -4 -5 3 -10 11 -10 16 0 6
5 7 10 4 6 -3 10 -11 10 -16z m-1220 1 c0 -5 -5 -10 -11 -10 -5 0 -7 5 -4 10
3 6 8 10 11 10 2 0 4 -4 4 -10z m235 -29 c-6 -5 -25 10 -25 20 0 5 6 4 14 -3
8 -7 12 -15 11 -17z m948 -14 c-3 -12 -1 -18 4 -12 14 17 33 16 33 -1 0 -12
-7 -15 -25 -12 -28 6 -32 -1 -12 -21 10 -10 9 -11 -4 -6 -12 5 -16 18 -15 50
1 31 4 41 12 34 7 -5 10 -20 7 -32z m-48 23 c3 -5 1 -10 -4 -10 -6 0 -11 5
-11 10 0 6 2 10 4 10 3 0 8 -4 11 -10z m-235 -10 c0 -5 -5 -10 -11 -10 -5 0
-7 5 -4 10 3 6 8 10 11 10 2 0 4 -4 4 -10z m55 -9 c3 -5 1 -12 -5 -16 -5 -3
-10 1 -10 9 0 18 6 21 15 7z m102 3 c-3 -3 -12 -4 -19 -1 -8 3 -5 6 6 6 11 1
17 -2 13 -5z m73 -16 c0 -6 -6 -5 -15 2 -8 7 -15 14 -15 16 0 2 7 1 15 -2 8
-4 15 -11 15 -16z m-1126 -13 c3 -8 1 -15 -4 -15 -6 0 -10 7 -10 15 0 8 2 15
4 15 2 0 6 -7 10 -15z m1071 5 c3 -5 1 -10 -4 -10 -6 0 -11 5 -11 10 0 6 2 10
4 10 3 0 8 -4 11 -10z m-828 -22 c-3 -8 -6 -5 -6 6 -1 11 2 17 5 13 3 -3 4
-12 1 -19z m650 0 c-3 -8 -6 -5 -6 6 -1 11 2 17 5 13 3 -3 4 -12 1 -19z m198
-8 c4 -6 11 -8 16 -5 5 4 9 2 9 -3 0 -6 -23 -10 -52 -10 -33 -1 -47 2 -39 8 8
4 21 6 29 2 10 -3 13 -1 8 6 -4 7 -1 12 8 12 8 0 18 -5 21 -10z m121 -27 c-11
-11 -19 6 -11 24 8 17 8 17 12 0 3 -10 2 -21 -1 -24z m-36 -3 c0 -5 -2 -10 -4
-10 -3 0 -8 5 -11 10 -3 6 -1 10 4 10 6 0 11 -4 11 -10z m-140 -20 c0 -5 -9
-6 -20 -3 -11 3 -17 9 -15 14 7 10 35 1 35 -11z m40 6 c0 -3 -4 -8 -10 -11 -5
-3 -10 -1 -10 4 0 6 5 11 10 11 6 0 10 -2 10 -4z m170 -20 c0 -2 -7 -9 -15
-16 -13 -11 -14 -10 -9 4 5 14 24 23 24 12z m-1197 -23 c-7 -2 -19 -2 -25 0
-7 3 -2 5 12 5 14 0 19 -2 13 -5z m957 -36 c0 -6 -8 -3 -18 6 -10 10 -23 14
-27 10 -5 -5 -3 0 5 10 13 18 15 18 27 1 7 -10 13 -22 13 -27z m70 22 c7 -11
9 -23 7 -26 -10 -9 -45 21 -40 34 7 19 21 16 33 -8z m110 1 c0 -5 -2 -10 -4
-10 -3 0 -8 5 -11 10 -3 6 -1 10 4 10 6 0 11 -4 11 -10z m-270 -38 c0 -15 -2
-15 -10 -2 -13 20 -13 33 0 25 6 -3 10 -14 10 -23z m260 -3 c0 -5 -4 -9 -10
-9 -5 0 -10 7 -10 16 0 8 5 12 10 9 6 -3 10 -10 10 -16z m30 11 c0 -5 -5 -10
-11 -10 -5 0 -7 5 -4 10 3 6 8 10 11 10 2 0 4 -4 4 -10z m-1065 -10 c3 -6 -1
-7 -9 -4 -18 7 -21 14 -7 14 6 0 13 -4 16 -10z m1002 4 c-3 -3 -12 -4 -19 -1
-8 3 -5 6 6 6 11 1 17 -2 13 -5z m-1097 -20 c0 -2 -7 -4 -15 -4 -8 0 -15 4
-15 10 0 5 7 7 15 4 8 -4 15 -8 15 -10z m980 6 c0 -5 -5 -10 -11 -10 -5 0 -7
5 -4 10 3 6 8 10 11 10 2 0 4 -4 4 -10z m-135 -22 c5 4 5 1 1 -5 -10 -18 -23
-16 -30 3 -5 13 -4 14 7 6 8 -7 18 -8 22 -4z m355 -10 c0 -18 -2 -20 -9 -8 -6
8 -7 18 -5 22 9 14 14 9 14 -14z m-397 -21 c-3 -5 -9 -3 -14 4 -4 7 -5 17 -2
22 3 5 9 3 14 -4 4 -7 5 -17 2 -22z m108 14 c-8 -5 -10 -14 -6 -21 5 -9 4 -11
-3 -6 -18 11 -14 36 6 36 13 0 14 -2 3 -9z m169 -6 c7 -8 9 -15 4 -16 -5 0 0
-4 11 -8 12 -5 23 -4 27 3 5 7 15 3 29 -12 14 -16 18 -27 11 -34 -7 -7 -12 -3
-16 10 -4 12 -15 20 -24 20 -35 -3 -70 12 -75 32 -6 24 15 27 33 5z m-115 -5
c3 -5 2 -10 -4 -10 -5 0 -13 5 -16 10 -3 6 -2 10 4 10 5 0 13 -4 16 -10z
m-871 -9 c3 -5 -1 -14 -8 -20 -12 -10 -13 -8 -9 8 6 23 9 25 17 12z m-179 -21
c-3 -5 -12 -10 -18 -10 -7 0 -6 4 3 10 19 12 23 12 15 0z m990 -19 c-6 -21 21
-38 28 -18 3 7 4 2 4 -10 -1 -27 -5 -27 -30 -8 -13 9 -17 20 -12 34 3 12 9 21
11 21 3 0 3 -8 -1 -19z m-974 -14 c-10 -9 -11 -8 -5 6 3 10 9 15 12 12 3 -3 0
-11 -7 -18z m110 0 c-10 -9 -11 -8 -5 6 3 10 9 15 12 12 3 -3 0 -11 -7 -18z
m576 7 c-3 -3 -12 -4 -19 -1 -8 3 -5 6 6 6 11 1 17 -2 13 -5z m504 -3 c7 11 9
11 9 -3 0 -9 5 -18 11 -20 7 -2 7 -12 0 -31 -8 -21 -17 -28 -33 -25 -13 2 -24
11 -26 21 -4 21 17 19 35 -3 11 -13 12 -11 11 13 -1 15 -8 27 -15 27 -7 0 -13
8 -12 18 0 12 2 13 6 3 5 -11 7 -11 14 0z m-1081 -46 c0 -8 -2 -15 -4 -15 -2
0 -6 7 -10 15 -3 8 -1 15 4 15 6 0 10 -7 10 -15z m780 -7 c0 -6 -6 -5 -15 2
-8 7 -15 14 -15 16 0 2 7 1 15 -2 8 -4 15 -11 15 -16z m208 6 c4 2 16 -5 27
-16 l20 -20 -20 4 c-21 3 -45 26 -44 43 0 6 3 4 6 -3 2 -6 8 -10 11 -8z m-98
-13 c0 -5 -33 -30 -42 -31 -4 0 -4 33 1 35 6 3 41 0 41 -4z m240 -1 c0 -5 -5
-10 -11 -10 -5 0 -7 5 -4 10 3 6 8 10 11 10 2 0 4 -4 4 -10z m-222 -34 c-7 -7
-22 -15 -33 -20 -16 -6 -15 -3 5 17 14 13 28 22 33 20 4 -3 1 -10 -5 -17z
m-320 0 c-7 -8 -17 -12 -22 -9 -4 3 -2 9 5 14 22 13 31 11 17 -5z m-734 -24
c3 -5 -1 -9 -9 -9 -8 0 -15 4 -15 9 0 4 4 8 9 8 6 0 12 -4 15 -8z m40 -10 c3
-5 -1 -9 -9 -9 -8 0 -15 4 -15 9 0 4 4 8 9 8 6 0 12 -4 15 -8z m1103 -14 c-3
-8 -6 -5 -6 6 -1 11 2 17 5 13 3 -3 4 -12 1 -19z m167 -19 c-3 -5 -10 -6 -16
-3 -6 4 -14 0 -19 -7 -7 -11 -9 -11 -9 3 0 9 6 18 13 21 17 6 38 -3 31 -14z
m-254 1 c0 -5 -2 -10 -4 -10 -3 0 -8 5 -11 10 -3 6 -1 10 4 10 6 0 11 -4 11
-10z m155 1 c3 -5 1 -12 -5 -16 -5 -3 -10 1 -10 9 0 18 6 21 15 7z m-114 -28
c13 -16 12 -17 -3 -4 -17 13 -22 21 -14 21 2 0 10 -8 17 -17z m204 -23 c-10
-11 -21 -18 -23 -15 -3 3 3 12 14 20 27 20 30 18 9 -5z m-205 -40 c0 -13 -1
-13 -10 0 -5 8 -10 22 -10 30 0 13 1 13 10 0 5 -8 10 -22 10 -30z m67 -12 c-3
-7 -5 -2 -5 12 0 14 2 19 5 13 2 -7 2 -19 0 -25z m78 22 c3 -5 -1 -10 -10 -10
-9 0 -13 5 -10 10 3 6 8 10 10 10 2 0 7 -4 10 -10z m34 -64 c5 -4 12 -2 16 4
3 5 11 10 16 10 6 0 -3 -11 -20 -25 -20 -17 -28 -32 -24 -43 5 -14 3 -15 -7
-5 -13 12 -21 80 -12 97 3 5 9 0 13 -11 4 -12 12 -24 18 -27z m-261 25 c11 -7
11 -9 -1 -14 -9 -3 -18 1 -21 9 -6 16 2 18 22 5z m147 -11 c3 -6 -1 -7 -9 -4
-18 7 -21 14 -7 14 6 0 13 -4 16 -10z m63 -47 c9 -7 12 -16 8 -20 -4 -4 -11
-2 -15 6 -5 7 -12 12 -17 12 -9 -1 -10 5 -5 32 2 8 4 7 8 -3 3 -8 12 -21 21
-27z m-888 -9 c0 -8 -5 -12 -10 -9 -6 4 -8 11 -5 16 9 14 15 11 15 -7z m684 4
c-5 -8 -2 -9 9 -5 13 5 17 1 17 -15 0 -20 -1 -20 -20 -3 -17 15 -19 35 -4 35
3 0 2 -5 -2 -12z m-69 -18 c3 -5 1 -10 -4 -10 -6 0 -11 5 -11 10 0 6 2 10 4
10 3 0 8 -4 11 -10z m234 -54 c-3 -3 -11 5 -18 17 -13 21 -12 21 5 5 10 -10
16 -20 13 -22z m131 24 c0 -5 -5 -10 -11 -10 -5 0 -7 5 -4 10 3 6 8 10 11 10
2 0 4 -4 4 -10z m-60 -15 c0 -8 -4 -15 -10 -15 -5 0 -7 -8 -4 -17 5 -16 4 -16
-10 1 -11 14 -12 21 -3 32 16 18 27 17 27 -1z m-243 -10 c0 -8 -4 -15 -9 -15
-10 0 -11 14 -1 23 9 10 10 9 10 -8z m131 -13 c-10 -2 -18 -7 -18 -11 0 -4 -6
-8 -14 -8 -8 0 -12 6 -9 14 3 7 9 11 13 8 5 -3 11 -1 15 5 4 6 12 7 18 3 8 -5
7 -9 -5 -11z m163 -35 c-8 -8 -11 -5 -11 9 0 27 14 41 18 19 2 -9 -1 -22 -7
-28z m-201 -7 c3 -1 9 -2 13 -1 5 1 6 -8 2 -19 -3 -11 -2 -20 3 -20 6 0 12 5
14 12 3 7 7 8 11 2 3 -5 -3 -15 -13 -22 -17 -10 -20 -9 -26 13 -3 14 -10 25
-16 25 -5 0 -6 -6 -2 -12 6 -9 3 -9 -9 0 -9 8 -21 11 -27 7 -10 -6 -14 7 -5
17 4 4 42 3 55 -2z m172 -52 c-6 -6 -12 -4 -15 6 -4 9 -2 16 3 16 6 0 11 8 11
18 1 10 3 8 6 -7 3 -13 0 -28 -5 -33z m-69 27 c-3 -9 -8 -14 -10 -11 -3 3 -2
9 2 15 9 16 15 13 8 -4z m-182 -38 c-10 -9 -11 -8 -5 6 3 10 9 15 12 12 3 -3
0 -11 -7 -18z m279 -16 c0 -26 -22 -42 -40 -31 -15 9 -13 11 13 14 6 1 11 9
11 19 -1 9 2 17 7 17 5 0 9 -8 9 -19z m-53 -7 c-3 -3 -12 -4 -19 -1 -8 3 -5 6
6 6 11 1 17 -2 13 -5z m-247 -84 c0 -5 -2 -10 -4 -10 -3 0 -8 5 -11 10 -3 6
-1 10 4 10 6 0 11 -4 11 -10z m310 -60 c0 -5 -5 -10 -11 -10 -5 0 -7 5 -4 10
3 6 8 10 11 10 2 0 4 -4 4 -10z m-4 -95 c20 -19 4 -20 -22 0 -12 9 -14 14 -6
15 7 0 20 -7 28 -15z m54 -50 c0 -5 -5 -3 -10 5 -5 8 -10 20 -10 25 0 6 5 3
10 -5 5 -8 10 -19 10 -25z m-1373 3 c-3 -8 -6 -5 -6 6 -1 11 2 17 5 13 3 -3 4
-12 1 -19z m203 2 c0 -5 -2 -10 -4 -10 -3 0 -8 5 -11 10 -3 6 -1 10 4 10 6 0
11 -4 11 -10z m874 -15 c-7 -16 -24 -21 -24 -6 0 8 7 13 27 20 1 1 0 -6 -3
-14z m326 5 c0 -5 -5 -10 -11 -10 -5 0 -7 5 -4 10 3 6 8 10 11 10 2 0 4 -4 4
-10z m-378 -52 c-8 -8 -9 -4 -5 13 4 13 8 18 11 10 2 -7 -1 -18 -6 -23z m-82
8 c0 -3 -4 -8 -10 -11 -5 -3 -10 -1 -10 4 0 6 5 11 10 11 6 0 10 -2 10 -4z"/>
<path d="M66 4371 c-12 -13 -16 -27 -11 -42 6 -17 9 -19 16 -8 6 10 9 8 9 -9
0 -19 5 -22 30 -20 17 1 30 8 30 16 0 7 -4 11 -9 8 -10 -7 -23 19 -25 48 -1
27 -19 30 -40 7z"/>
<path d="M120 4350 c0 -21 15 -27 25 -10 3 6 1 10 -5 10 -6 0 -8 5 -5 10 3 6
1 10 -4 10 -6 0 -11 -9 -11 -20z"/>
<path d="M4365 4331 c-3 -5 -1 -12 5 -16 5 -3 10 1 10 9 0 18 -6 21 -15 7z"/>
<path d="M4132 4291 c-18 -11 12 -35 34 -27 13 5 14 9 4 21 -14 17 -20 18 -38
6z"/>
<path d="M4315 4220 c-3 -6 1 -7 9 -4 18 7 21 14 7 14 -6 0 -13 -4 -16 -10z"/>
<path d="M4480 4200 c0 -5 4 -10 9 -10 6 0 13 5 16 10 3 6 -1 10 -9 10 -9 0
-16 -4 -16 -10z"/>
<path d="M1380 2440 c-204 -30 -369 -89 -520 -186 -81 -52 -211 -175 -258
-245 -57 -83 -91 -140 -97 -161 -4 -13 -17 -45 -30 -73 -20 -46 -31 -86 -40
-155 -2 -14 -8 -52 -14 -86 -14 -78 -8 -244 13 -359 14 -79 61 -222 86 -265
58 -97 72 -119 90 -135 11 -10 20 -23 21 -29 2 -24 239 -222 252 -210 2 2 12
-5 22 -16 10 -11 24 -20 31 -20 7 0 25 -6 41 -14 53 -26 161 -64 209 -72 16
-2 36 -7 44 -10 66 -24 540 -25 540 -1 0 5 4 6 9 3 9 -6 134 18 175 34 14 5
26 6 26 2 0 -4 4 -2 8 3 4 6 32 19 62 29 79 28 207 94 270 139 47 34 189 177
218 220 79 115 139 245 164 357 17 75 19 405 3 480 -26 121 -96 282 -158 363
-48 63 -146 158 -213 207 -127 94 -325 174 -484 195 -30 4 -68 10 -85 12 -79
13 -278 9 -385 -7z m255 -265 c27 -8 51 -12 53 -10 8 8 145 -67 176 -96 17
-16 34 -29 37 -29 11 0 115 -142 142 -195 79 -152 112 -311 112 -535 -1 -226
-55 -380 -179 -505 -144 -146 -314 -188 -541 -132 -22 5 -106 47 -115 56 -3 4
-24 19 -48 35 -113 77 -238 294 -269 466 -2 14 -9 43 -14 65 -15 56 -14 359 1
415 7 25 14 53 16 63 15 83 87 205 162 275 119 112 328 169 467 127z m-1002
-1272 c-7 -2 -19 -2 -25 0 -7 3 -2 5 12 5 14 0 19 -2 13 -5z m347 -348 c0 -2
-10 -9 -22 -15 -22 -11 -22 -10 -4 4 21 17 26 19 26 11z"/>
<path d="M3861 2436 c-18 -10 -50 -12 -130 -7 -145 8 -288 4 -331 -11 -19 -7
-37 -13 -40 -13 -90 -23 -222 -129 -281 -227 -30 -49 -69 -192 -69 -253 0 -70
39 -206 76 -262 34 -51 139 -153 158 -153 5 0 17 -6 25 -14 16 -14 141 -78
266 -136 192 -89 230 -111 304 -177 61 -56 68 -66 90 -137 23 -77 25 -139 5
-190 -6 -15 -4 -17 7 -11 8 4 4 -2 -8 -14 -13 -12 -23 -28 -23 -36 0 -8 -25
-39 -55 -69 -57 -58 -108 -81 -208 -93 -51 -6 -163 18 -207 46 -49 30 -95 87
-124 150 -24 54 -28 73 -23 121 8 93 56 169 155 248 49 39 52 59 15 94 -34 31
-99 48 -195 49 -85 1 -142 -13 -213 -53 -68 -38 -87 -55 -127 -113 -59 -85
-77 -186 -59 -319 29 -205 192 -362 454 -437 108 -31 142 -36 131 -17 -5 7 -3
8 7 2 26 -16 43 -18 159 -17 152 1 158 1 166 14 4 8 9 7 14 -1 5 -8 15 -10 26
-5 11 4 28 10 39 12 48 8 132 38 157 55 14 10 33 18 41 18 8 0 20 7 27 15 7 8
16 15 20 15 21 0 90 55 85 67 -2 8 -1 11 4 8 5 -3 16 4 24 15 7 11 16 18 18
16 2 -1 17 12 32 31 18 20 24 33 15 33 -7 0 -13 11 -13 25 0 14 3 25 8 25 4 0
7 -9 7 -20 0 -25 9 -25 27 -2 23 30 36 55 24 48 -6 -4 -11 -1 -11 8 0 8 -8 19
-17 25 -10 5 -15 13 -10 17 4 4 16 -3 27 -17 18 -19 23 -21 31 -9 5 8 8 22 6
31 -1 9 4 23 10 31 7 8 14 31 15 50 2 20 6 34 9 32 7 -4 19 72 19 123 0 20 -4
32 -10 28 -6 -3 -10 -1 -10 4 0 6 5 11 11 11 7 0 9 21 6 63 -3 34 -6 62 -7 62
-1 0 -3 16 -6 34 -2 19 -11 45 -19 58 -8 12 -15 29 -15 38 0 16 -28 76 -39 85
-4 3 -17 20 -30 38 -12 17 -29 32 -37 32 -8 0 -14 6 -14 13 0 14 -74 79 -86
76 -4 0 -10 4 -13 10 -12 18 -201 112 -213 105 -6 -4 -8 -3 -5 3 6 10 -24 30
-53 35 -8 2 -17 5 -20 8 -3 3 -57 31 -120 64 -63 32 -121 63 -127 68 -7 6 -13
7 -13 3 0 -3 -18 11 -41 33 -33 31 -42 47 -46 85 -7 63 1 91 40 127 51 49 120
59 230 35 43 -9 152 -85 235 -164 73 -69 108 -85 150 -70 41 16 39 100 -4 164
-13 20 -24 41 -24 46 0 12 -71 151 -81 159 -3 3 -14 19 -22 35 -49 89 -122
132 -176 101z m44 -56 c3 -5 2 -10 -4 -10 -5 0 -13 5 -16 10 -3 6 -2 10 4 10
5 0 13 -4 16 -10z m-35 -10 c0 -5 -2 -10 -4 -10 -3 0 -8 5 -11 10 -3 6 -1 10
4 10 6 0 11 -4 11 -10z m-680 -570 c0 -5 -2 -10 -4 -10 -3 0 -8 5 -11 10 -3 6
-1 10 4 10 6 0 11 -4 11 -10z m490 -240 c0 -5 -2 -10 -4 -10 -3 0 -8 5 -11 10
-3 6 -1 10 4 10 6 0 11 -4 11 -10z m490 -30 c0 -5 -5 -10 -11 -10 -5 0 -7 5
-4 10 3 6 8 10 11 10 2 0 4 -4 4 -10z m-110 -40 c0 -5 -2 -10 -4 -10 -3 0 -8
5 -11 10 -3 6 -1 10 4 10 6 0 11 -4 11 -10z m90 -36 c0 -8 -19 -13 -24 -6 -3
5 1 9 9 9 8 0 15 -2 15 -3z m30 -68 c0 -2 -8 -10 -17 -17 -16 -13 -17 -12 -4
4 13 16 21 21 21 13z m100 -72 c0 -8 -4 -12 -10 -9 -5 3 -10 13 -10 21 0 8 5
12 10 9 6 -3 10 -13 10 -21z m-77 -9 c-3 -9 -8 -14 -10 -11 -3 3 -2 9 2 15 9
16 15 13 8 -4z m47 -4 c0 -6 -4 -13 -10 -16 -5 -3 -10 1 -10 9 0 9 5 16 10 16
6 0 10 -4 10 -9z m30 -31 c0 -5 -2 -10 -4 -10 -3 0 -8 5 -11 10 -3 6 -1 10 4
10 6 0 11 -4 11 -10z m64 -25 c-4 -8 -10 -15 -15 -15 -5 0 -9 7 -9 15 0 8 7
15 15 15 9 0 12 -6 9 -15z m-170 -10 c3 -9 0 -15 -9 -15 -9 0 -12 6 -9 15 4 8
7 15 9 15 2 0 5 -7 9 -15z m76 11 c0 -11 -19 -15 -25 -6 -3 5 1 10 9 10 9 0
16 -2 16 -4z m140 -9 c0 -2 -9 -14 -20 -27 l-20 -23 0 26 c0 20 5 27 20 27 11
0 20 -2 20 -3z m-75 -37 c3 -5 -1 -10 -9 -10 -9 0 -16 5 -16 10 0 6 4 10 9 10
6 0 13 -4 16 -10z m-205 -24 c0 -3 -4 -8 -10 -11 -5 -3 -10 -1 -10 4 0 6 5 11
10 11 6 0 10 -2 10 -4z m265 -6 c3 -6 -1 -7 -9 -4 -18 7 -21 14 -7 14 6 0 13
-4 16 -10z m-127 -35 c-3 -3 -9 2 -12 12 -6 14 -5 15 5 6 7 -7 10 -15 7 -18z
m-28 5 c0 -5 -2 -10 -4 -10 -3 0 -8 5 -11 10 -3 6 -1 10 4 10 6 0 11 -4 11
-10z m172 -47 c-5 -24 -6 -25 -12 -8 -6 16 2 33 16 35 1 0 -1 -12 -4 -27z
m-115 -56 c-12 -13 -24 -22 -26 -20 -6 4 30 43 40 43 5 0 -2 -10 -14 -23z m93
-7 c0 -20 -34 -28 -49 -12 -13 14 -12 15 7 10 12 -4 25 -2 28 3 7 12 14 11 14
-1z m-170 -40 c0 -5 -5 -10 -11 -10 -5 0 -7 5 -4 10 3 6 8 10 11 10 2 0 4 -4
4 -10z m129 -36 c4 3 8 -1 8 -9 0 -19 -2 -19 -21 1 -9 8 -13 21 -9 27 5 8 9 6
11 -6 2 -9 7 -15 11 -13z m51 -1 c0 -10 -4 -14 -8 -8 -4 6 -11 13 -16 18 -5 4
-2 7 7 7 10 0 17 -8 17 -17z m-303 -145 c-3 -8 -6 -5 -6 6 -1 11 2 17 5 13 3
-3 4 -12 1 -19z m150 6 c-3 -3 -12 -4 -19 -1 -8 3 -5 6 6 6 11 1 17 -2 13 -5z
m-187 -24 c0 -5 -5 -10 -11 -10 -5 0 -7 5 -4 10 3 6 8 10 11 10 2 0 4 -4 4
-10z m200 -10 c0 -5 -2 -10 -4 -10 -3 0 -8 5 -11 10 -3 6 -1 10 4 10 6 0 11
-4 11 -10z m-270 -30 c0 -5 -2 -10 -4 -10 -3 0 -8 5 -11 10 -3 6 -1 10 4 10 6
0 11 -4 11 -10z m242 -30 c-25 -24 -33 -25 -26 -6 3 8 13 17 22 19 10 3 19 5
21 6 3 0 -5 -8 -17 -19z m-142 -16 c0 -8 -19 -13 -24 -6 -3 5 1 9 9 9 8 0 15
-2 15 -3z m160 -53 c0 -5 -7 -12 -16 -15 -14 -5 -15 -4 -4 9 14 17 20 19 20 6z
m-388 -23 c-7 -7 -12 -8 -12 -2 0 14 12 26 19 19 2 -3 -1 -11 -7 -17z m249
-11 c-10 -9 -11 -8 -5 6 3 10 9 15 12 12 3 -3 0 -11 -7 -18z m-511 -71 c0 -3
-4 -8 -10 -11 -5 -3 -10 -1 -10 4 0 6 5 11 10 11 6 0 10 -2 10 -4z m474 -32
c3 -8 2 -12 -4 -9 -6 3 -10 10 -10 16 0 14 7 11 14 -7z m-144 -18 c0 -11 -19
-15 -25 -6 -3 5 1 10 9 10 9 0 16 -2 16 -4z m-250 -26 c0 -5 -5 -10 -11 -10
-5 0 -7 5 -4 10 3 6 8 10 11 10 2 0 4 -4 4 -10z m128 -29 c-7 -11 -16 -17 -22
-14 -5 3 -1 12 9 20 25 18 27 17 13 -6z"/>
</g>
</svg>
