<svg width="38" height="48" viewBox="0 0 38 48" fill="none" xmlns="http://www.w3.org/2000/svg">
<path d="M17.4846 3.09536L0.449025 2.14453C-0.105623 4.997 0.449025 14.5845 4.49003 26.4698C7.72283 35.978 14.0775 44.1129 16.8507 46.9917C19.8617 46.5163 26.8027 44.0125 30.4792 37.8004C34.1557 31.5884 34.0184 23.4852 33.4902 20.2102L17.4846 3.09536Z" fill="#CDAEFB"/>
<path d="M13.9983 17.8332L13.0475 17.5955V14.7431L13.3644 13.7922H13.9983L15.4245 14.5054L17.6431 16.0901L18.4355 17.8332V20.2103L13.9983 17.8332Z" fill="#A4FCF5"/>
<path d="M23.1103 33.7596V24.3306L21.2879 25.6776L19.5447 26.1531L17.8807 25.9946L15.6622 24.8853L8.1348 20.5273V27.4208V29.8771L8.92715 30.6695L17.4846 35.5028L18.9108 35.7405L20.8125 35.5028L22.001 34.9482L23.1103 33.7596Z" fill="#F7CCBF"/>
<path d="M14.1568 27.5792L13.7606 26.5491L13.1267 26.3906L12.6513 26.5491L12.3344 27.4207L12.8098 28.8469L12.6513 30.2732L13.9983 31.0655V30.7486L14.1568 29.0054V27.5792Z" fill="#80AEFF"/>
<path d="M10.8288 19.7348V17.754L9.7195 18.0709L8.1348 19.3387V20.2895L8.53097 20.6064L17.3261 25.7567L18.8316 26.1529L20.4955 25.9152L22.3972 24.9644L23.031 24.172V23.4589L22.3972 22.6665L20.4955 21.6365V24.172L20.0993 24.489H18.8316L18.5146 23.8551V21.795L18.2769 20.0518L12.9682 17.437V19.101L12.6512 19.7348L12.1758 20.0518H11.6212L10.8288 19.7348Z" fill="#F7CCBF"/>
<path d="M3.53918 0.163818L0.686707 1.98623L17.4846 3.01629L33.5694 20.2896L37.135 18.3879L20.4163 0.876936L3.53918 0.163818Z" fill="#A4FCF5"/>
<path d="M3.22235 6.10669C3.06097 15.2976 5.59928 22.1118 7.73876 27.8172L7.97646 28.6095L8.21417 20.686V19.1013L10.7497 17.5958L11.0666 13.5548L12.4136 12.0493L14.2361 11.6532L17.0093 12.8417L19.3864 14.7433L20.0995 16.2488L20.4956 17.3581L20.8126 21.7953L22.3181 22.5876L23.1104 23.38V24.4893V33.8391C21.7793 35.9943 18.5412 35.8464 17.0885 35.503L9.08576 31.1451L12.7305 37.6419L17.0885 43.1096C18.5146 43.1096 23.5065 41.5245 26.9929 37.167C30.923 31.3352 31.0604 24.1195 30.6378 21.2406L17.0093 6.5821C12.1758 6.26473 3.22235 6.10669 3.22235 6.10669Z" fill="#A4FCF5"/>
<path d="M35.7087 31.3034C33.4901 38.7198 28.4983 41.7625 26.9136 42.5548C29.6868 39.4646 32.1431 35.0275 32.8563 31.3034C33.5689 27.582 33.8599 22.4026 33.6486 20.2105L37.0557 18.4673C37.0557 19.8143 37.2934 25.0438 35.7087 31.3034Z" fill="#80AEFF"/>
<path d="M1.796 1.03532L0 2.07067L0.147906 5.57816C0.676142 18.3192 4.47944 30.1094 11.4944 40.7164C12.9523 42.935 16.0372 46.8651 16.5443 47.182C16.8613 47.3722 20.5589 46.3579 22.1225 45.6607C24.0453 44.7732 28.2712 42.2588 29.7291 41.0756C32.1167 39.1951 34.6734 35.3073 35.7932 31.8843C36.8286 28.6937 37.1033 26.8555 37.2089 22.4817L37.3357 18.2558L29.053 9.42371L20.7702 0.612736H19.6292C18.5094 0.612736 10.2689 0.295795 5.81059 0.105629L3.592 -1.90735e-05L1.796 1.03532ZM13.4172 0.845161C16.8402 0.971935 19.6715 1.09871 19.7138 1.14097C19.756 1.18323 19.2278 1.54243 18.5305 1.96502L17.2839 2.70455L9.48711 2.38761C5.19784 2.21857 1.54245 2.07067 1.37341 2.02841C1.20438 2.00728 1.62697 1.62695 2.32424 1.20436C3.57087 0.443699 3.61313 0.422573 5.388 0.528217C6.38109 0.570477 9.99422 0.718384 13.4172 0.845161ZM28.8205 9.8463L36.8708 18.4671V21.383C36.8708 26.5597 36.0045 30.7433 34.124 34.5677C32.8774 37.0821 31.0814 39.4275 29.3488 40.7798C27.4894 42.2166 27.3626 42.2377 28.5459 40.9066C30.6377 38.5612 32.5182 34.5466 33.3 30.7222C33.8071 28.2712 34.1451 23.5382 33.955 21.6154L33.8071 20.1152L25.8413 11.6C21.4464 6.90931 17.8544 3.02149 17.8544 2.9581C17.8544 2.83133 20.3899 1.26775 20.6223 1.24662C20.7068 1.24662 24.3834 5.11331 28.8205 9.8463ZM11.4099 2.9581C15.4033 3.10601 17.4106 3.25391 17.5586 3.42295C17.6853 3.57085 21.3196 7.45867 25.63 12.0649L33.4901 20.4744V23.4748C33.4901 34.9269 28.7571 42.935 20.3054 45.8508C19.3334 46.1889 18.129 46.527 17.6008 46.5904L16.6711 46.7171L15.2766 45.069C6.61351 34.61 1.16212 20.0096 0.591624 5.70493L0.464847 2.47213L2.97925 2.5989C4.35266 2.66229 8.15596 2.83133 11.4099 2.9581Z" fill="#410EB5"/>
<path d="M3.12714 8.55744C3.44408 14.9174 4.71185 20.8759 7.07835 27.1302C7.54319 28.3557 7.92352 29.539 7.92352 29.7502C7.92352 29.9615 8.07143 30.2574 8.24046 30.4053C8.4095 30.532 9.1279 31.7575 9.82517 33.0887C11.6846 36.6596 14.4525 40.7798 16.333 42.8082L16.9669 43.4844L18.5305 43.0618C21.4464 42.2589 23.4748 41.139 25.4398 39.2162C29.0529 35.6876 30.9546 30.2996 30.9546 23.6016V21.1083L24.0875 13.7764L17.1993 6.42337L15.0441 6.29659C13.8609 6.21207 10.6703 6.0853 7.94465 6.00078L3.00037 5.83174L3.12714 8.55744ZM14.8117 6.71918L16.9458 6.84595L23.7283 14.0933L30.532 21.3619V23.6016C30.532 27.8697 29.6234 31.8632 27.9331 35.1594C26.6865 37.5681 24.0875 40.1671 21.7633 41.3292C20.8336 41.794 19.4179 42.3434 18.615 42.5547L17.136 42.9561L16.1006 41.794C14.7483 40.2938 11.6423 35.6242 10.3534 33.1521L9.33919 31.1871L10.0576 31.6096C10.4591 31.8632 12.2973 32.9197 14.1356 33.9761L17.4952 35.8989H19.0165C20.2208 35.8989 20.7491 35.7933 21.6154 35.3495C23.3269 34.5044 23.348 34.4199 23.348 28.4402C23.348 22.6719 23.3903 22.8409 21.6788 21.9535L20.8547 21.552L20.7913 19.2701C20.7068 17.2839 20.6223 16.819 20.1152 15.7837C19.4391 14.3892 18.7418 13.7553 16.4387 12.4453C14.5582 11.3676 13.3749 11.2409 12.1705 11.9381C11.0718 12.572 10.6703 13.5862 10.6703 15.6992V17.4741L9.93082 17.7276C9.52936 17.8544 8.91661 18.2347 8.5574 18.5728L7.92352 19.1644L7.90239 23.4748C7.88126 28.4191 7.92352 28.398 6.35994 23.6227C4.77524 18.7418 3.82441 13.7764 3.54973 8.85325L3.42295 6.27546L8.0503 6.42337C10.5858 6.50788 13.6285 6.63466 14.8117 6.71918ZM16.7134 13.1214C18.7418 14.3258 19.756 15.4879 20.1786 17.0937C20.3054 17.5586 20.3688 19.3334 20.3476 21.0449L20.2842 24.1721H19.5447H18.8052L18.6995 20.6646C18.5939 17.305 18.5728 17.136 18.0234 16.3119C17.6431 15.7414 16.9458 15.1709 15.9527 14.5793C13.0368 12.9101 12.7833 13.058 12.7833 16.7345C12.7833 18.1502 12.6988 19.4391 12.5931 19.587C12.4875 19.756 12.1494 19.8405 11.8113 19.7983L11.1986 19.7349L11.1352 16.8824C11.0507 13.5229 11.2831 12.8467 12.6776 12.1917C13.8398 11.6423 14.537 11.8114 16.7134 13.1214ZM15.6569 14.9174C17.0092 15.7414 17.4106 16.1218 17.8121 16.8824C18.2558 17.7487 18.4882 19.8405 18.129 19.8405C18.0656 19.8405 17.2839 19.418 16.3964 18.9109C15.509 18.3826 14.4314 17.8121 14.0088 17.622L13.2059 17.305V15.7414C13.2059 14.2835 13.2904 14.0088 13.8609 13.9454C13.9243 13.9243 14.7272 14.368 15.6569 14.9174ZM16.1006 19.2489L18.2558 20.4956L18.3192 22.4395C18.3826 24.3411 18.4037 24.3834 18.9742 24.5735C19.3334 24.7003 19.756 24.7003 20.1363 24.5735C20.6434 24.4045 20.728 24.2566 20.8125 23.179L20.9181 21.9958L21.8056 22.524C22.2915 22.7987 22.7564 23.2213 22.8198 23.4537C23.179 24.5735 21.1294 25.8624 18.9953 25.8624C17.7487 25.8624 17.6219 25.8202 13.1425 23.2424C10.5013 21.7211 8.51515 20.4533 8.43063 20.2209C8.21933 19.5659 8.5574 19.0165 9.4871 18.4671C9.99421 18.1713 10.4591 17.9389 10.5224 17.9389C10.607 17.9389 10.6703 18.3404 10.6703 18.8475C10.6703 19.9251 10.945 20.2631 11.8536 20.2631C12.8044 20.2631 13.2059 19.7772 13.2059 18.6784C13.2059 17.5374 13.1214 17.5374 16.1006 19.2489ZM12.9101 23.6438C15.9527 25.3976 17.5797 26.2005 18.2347 26.3062C19.4391 26.4963 21.1505 26.0949 22.1436 25.4187L22.9254 24.8905V29.3065V33.7226L22.376 34.2719C21.5309 35.1383 20.1997 35.5397 18.6573 35.4341C17.4106 35.3495 17.0514 35.1805 13.2059 32.9408C10.945 31.6308 8.91661 30.4053 8.72644 30.2362C8.38837 29.9615 8.34611 29.4544 8.34611 25.5032C8.34611 23.0945 8.38837 21.1083 8.43063 21.1083C8.47289 21.1083 10.4802 22.2493 12.9101 23.6438Z" fill="#410EB5"/>
<path d="M12.4875 26.3695C12.086 26.7921 12.0649 27.2992 12.3818 27.8908C12.5297 28.1866 12.5297 28.6303 12.403 29.2431C12.2339 30.0037 12.255 30.2362 12.5509 30.4686C12.8678 30.7644 14.1356 31.4617 14.3257 31.4617C14.368 31.4617 14.3891 30.4686 14.3891 29.2642C14.368 27.4682 14.2835 26.9822 13.9877 26.6442C13.4383 26.0525 12.8678 25.9469 12.4875 26.3695ZM13.7764 27.3626C14.0722 27.9542 14.0933 28.1866 13.882 28.5247C13.713 28.7782 13.6707 29.2431 13.7552 29.7713C13.9031 30.6588 13.7552 30.7855 13.1425 30.3207C12.8467 30.0883 12.8044 29.8558 12.9101 29.1797C12.9734 28.6937 12.9523 28.0598 12.8467 27.7218C12.403 26.454 13.2059 26.1582 13.7764 27.3626Z" fill="#410EB5"/>
</svg>
