<svg width="54" height="54" viewBox="0 0 54 54" fill="none" xmlns="http://www.w3.org/2000/svg">
<ellipse cx="44.0815" cy="6.4863" rx="2.63813" ry="1.31906" fill="#CDAEFB"/>
<ellipse cx="44.0816" cy="6.48652" rx="1.64883" ry="0.824415" fill="#80AEFF"/>
<ellipse cx="35.5075" cy="2.44683" rx="2.47324" ry="1.23662" fill="#CDAEFB"/>
<ellipse cx="35.3429" cy="2.36421" rx="1.64883" ry="0.824415" fill="#80AEFF"/>
<path d="M46.225 6.98096C44.84 8.43193 42.5151 7.58553 41.5258 6.98096L40.8663 22.8922L42.8449 25.3654L47.2143 27.9211L46.4723 7.72293C46.4723 7.39324 46.225 7.47569 46.225 6.98096Z" fill="#CDAEFB"/>
<path d="M37.5685 3.02368C36.1835 4.47465 33.8587 3.62825 32.8694 3.02368L32.2098 18.9349L34.1884 21.4081L38.5578 23.9638L37.8159 3.76565C37.8159 3.43597 37.5685 3.51841 37.5685 3.02368Z" fill="#CDAEFB"/>
<path d="M44.0815 25.7779V8.05294L46.4723 6.9812L47.1319 28.0038L44.0815 26.2725V25.7779Z" fill="#B08CEC"/>
<path d="M35.4253 21.8203V4.09542L37.8161 3.02368L38.4756 24.0463L35.4253 22.315V21.8203Z" fill="#B08CEC"/>
<path d="M13.0011 27.1792L6.98291 19.1823L23.2239 9.86646L27.1811 14.9778L29.9841 13.7412L33.7764 18.6877L36.3321 17.3686L42.845 25.3654L47.2143 28.2509L30.8909 37.7317L26.2742 35.0111L19.8438 26.8494L19.5965 30.9715L13.4133 23.3044L13.0011 27.1792Z" fill="#F7CCBF"/>
<path d="M47.2143 28.251L31.0557 37.7317V41.2767V49.356L47.4616 39.8752L47.2143 28.251Z" fill="#CDAEFB"/>
<path d="M45.5655 34.1867V32.0432L32.952 39.2981V41.524L45.5655 34.1867Z" fill="#A4FCF5"/>
<path d="M6.65313 35.4232V31.6309L0.717346 35.011L31.0558 52.7359L52.9028 40.1223L47.3792 36.8247V40.1223L31.0558 49.2733L6.65313 35.4232Z" fill="#80AEFF"/>
<path d="M6.65314 19.3472V35.5881L30.3138 49.1085H30.9734V37.8141L26.3566 35.0935L19.8438 26.9318L19.5964 30.9714L13.4958 23.057L13.2485 26.6845L12.9187 27.0967L6.65314 19.3472Z" fill="#CDAEFB"/>
<path d="M28.0054 38.5558L10.1981 28.4155L9.95074 37.2368L28.0054 47.7068V38.5558Z" fill="#A4FCF5"/>
<path d="M33.8148 1.045C33.4411 1.19889 33.0233 1.52865 32.9134 1.7485C32.7815 1.96834 32.6276 4.47456 32.5397 7.33253C32.4518 10.1905 32.3198 13.3343 32.2319 14.3236L32.1 16.1263L31.2206 15.0051C30.737 14.3675 30.2313 13.708 30.0774 13.5321C29.8576 13.2463 29.6597 13.2903 28.6045 13.8839L27.3953 14.5874L25.3508 12.0372C24.2296 10.6302 23.2183 9.53097 23.0864 9.55296C22.9545 9.59693 19.1732 11.7514 14.6664 14.3456L6.48818 19.0722L6.44422 25.2058L6.37826 31.3395L3.32243 33.1202C1.62963 34.0875 0.266602 34.9889 0.266602 35.1208C0.288586 35.2747 30.759 53.0381 31.0448 53.0381C31.2426 53.0381 53.3149 40.1992 53.3149 40.0673C53.3149 40.0013 52.0398 39.2099 50.479 38.3085L47.665 36.6817L47.533 31.4054C47.3792 24.4584 46.7196 6.673 46.5877 6.05744C46.4558 5.35394 45.4006 4.89227 43.9716 4.89227C42.5426 4.89227 41.4873 5.35394 41.3554 6.05744C41.2455 6.56308 40.7838 18.7644 40.7838 20.9848C40.7838 21.6883 40.7179 22.2599 40.6299 22.2599C40.52 22.238 40.0803 21.7323 39.5967 21.1387L38.7393 20.0175L38.4095 10.9819C38.2117 5.04616 38.0138 1.81445 37.8379 1.61659C37.1564 0.781185 35.1119 0.473404 33.8148 1.045ZM33.6609 2.36406C33.6389 3.02359 33.5949 3.08955 33.3751 2.78176C33.1772 2.51795 33.1772 2.29811 33.3311 2.01231C33.6389 1.44072 33.6829 1.48468 33.6609 2.36406ZM37.706 2.36406C37.706 2.51795 37.5741 2.7378 37.4422 2.8697C37.2224 3.04558 37.1564 2.93565 37.1564 2.36406C37.1564 1.79247 37.2224 1.68254 37.4422 1.85842C37.5741 1.99033 37.706 2.21017 37.706 2.36406ZM36.5848 2.10025C36.9586 2.56192 36.4309 2.91367 35.3757 2.91367C34.3644 2.91367 33.8148 2.49597 34.2325 2.07826C34.5842 1.72651 36.277 1.7485 36.5848 2.10025ZM35.4636 4.01289C36.1012 4.01289 36.8266 3.90297 37.0905 3.77106C37.3323 3.63916 37.5521 3.5732 37.5961 3.61717C37.706 3.74908 38.2117 18.7644 38.1017 18.8743C38.0358 18.9183 37.6621 18.5226 37.2444 17.995C36.8266 17.4454 36.4089 16.9837 36.299 16.9837C36.1891 16.9837 35.6175 17.2915 35.0239 17.6652C33.9687 18.3027 33.9027 18.3027 33.6169 17.929C32.5837 16.6319 32.6056 16.9617 32.8475 10.6742C32.9794 7.44246 33.0893 4.47456 33.0893 4.07884C33.0893 3.37534 33.0893 3.37534 33.7049 3.70511C34.0346 3.859 34.8261 4.01289 35.4636 4.01289ZM42.2788 5.99149C42.0589 6.34324 42.0589 6.51911 42.3008 6.91483L42.5866 7.42047L42.0809 6.93681C41.5973 6.45316 41.5973 6.43117 41.993 5.99149C42.4986 5.41989 42.6305 5.41989 42.2788 5.99149ZM46.17 6.69498C46.0821 6.89285 45.8842 7.11269 45.7083 7.17864C45.4665 7.26658 45.4445 7.22261 45.6864 6.87086C45.8842 6.51911 45.8842 6.32125 45.6424 5.92553L45.3566 5.44188L45.8183 5.90355C46.1041 6.16736 46.236 6.49713 46.17 6.69498ZM45.2467 6.18935C45.5545 6.49713 45.2467 6.84888 44.4552 6.98078C43.6858 7.13467 42.5426 6.80491 42.5426 6.43117C42.5426 5.83759 44.6971 5.63974 45.2467 6.18935ZM44.0375 8.18993C44.4332 8.18993 45.0928 8.03603 45.5105 7.88214L46.2799 7.55238V8.91541C46.2799 9.66288 46.4338 14.1257 46.6097 18.8304C46.7856 23.535 46.9175 27.4043 46.8955 27.4263C46.8515 27.4702 45.9941 27.0086 44.9609 26.415C43.6858 25.6895 42.7844 24.986 42.1249 24.1946L41.1576 23.0294L41.3115 18.0829C41.3774 15.3568 41.5093 11.8833 41.5973 10.3664L41.7292 7.59635L42.5206 7.88214C42.9603 8.03603 43.6418 8.16794 44.0375 8.18993ZM44.2354 7.6623C44.1694 7.72825 43.9716 7.75024 43.8177 7.68428C43.6418 7.61833 43.7078 7.55238 43.9496 7.55238C44.1914 7.53039 44.3233 7.59635 44.2354 7.6623ZM25.1529 12.5209L26.9337 14.7852L26.0983 15.2909C25.6586 15.5767 22.5368 17.3794 19.1952 19.314L13.1055 22.8095L13.0395 24.7881L12.9736 26.7448L10.0497 23.0514C8.4448 21.0288 7.19169 19.292 7.25764 19.2261C7.69733 18.7864 23.1084 10.0146 23.2183 10.1465C23.3062 10.2125 24.1636 11.2897 25.1529 12.5209ZM31.5504 16.1483C32.5177 17.3574 33.2872 18.4566 33.2652 18.5666C33.2212 18.6545 30.1214 20.5232 26.3841 22.6776L19.5689 26.6128L19.5029 28.5255L19.437 30.4161L16.601 26.8327C15.0401 24.8541 13.765 23.1833 13.809 23.0953C13.853 22.9195 29.3739 13.9279 29.6158 13.9059C29.7257 13.9059 30.5831 14.9171 31.5504 16.1483ZM39.2669 21.4025C40.8718 23.4471 42.2348 25.2058 42.2788 25.2938C42.3227 25.4477 26.7138 34.5712 26.406 34.5712C26.1642 34.5712 20.3164 27.0745 20.3823 26.8547C20.4483 26.6788 35.9033 17.6652 36.1891 17.6432C36.2551 17.6432 37.6401 19.336 39.2669 21.4025ZM10.3574 24.3045C11.8963 26.2391 13.2154 27.7121 13.3253 27.6021C13.4133 27.5142 13.5232 26.6348 13.5672 25.6675L13.6331 23.9307L16.601 27.7121C18.2278 29.7786 19.6349 31.4714 19.7228 31.4934C19.8107 31.4934 19.9206 30.592 19.9426 29.5148L20.0086 27.5362L23.0424 31.3835L26.0763 35.2307L28.3846 36.5718L30.671 37.9128V43.4089V48.905L29.5278 48.2455L28.3627 47.6079L28.2967 42.9912L28.2527 38.3965L19.3271 33.2301C14.4246 30.3942 10.2695 28.0638 10.0936 28.0198C9.82981 27.9539 9.78584 28.7014 9.78584 32.3508C9.78584 34.791 9.74187 36.7696 9.69791 36.7696C9.63195 36.7696 8.99441 36.4179 8.26892 36.0002L6.92787 35.2087V27.5802C6.94986 20.721 6.97184 19.9955 7.27962 20.3913C7.4555 20.6331 8.84052 22.3918 10.3574 24.3045ZM44.763 26.8986C45.8402 27.5142 46.7196 28.1078 46.7196 28.1737C46.7196 28.2617 43.1801 30.3722 38.8272 32.8784L30.9568 37.4292L28.9562 36.286C27.835 35.6484 26.9337 35.0768 26.9557 35.0109C26.9557 34.9229 42.4327 25.8874 42.7404 25.7994C42.7844 25.7774 43.6858 26.2831 44.763 26.8986ZM19.1072 33.6698C26.7798 38.1107 28.0988 38.9681 27.7691 39.2978C27.7031 39.3638 23.7679 37.1654 18.9973 34.4173C13.1495 31.0317 10.3135 29.273 10.2695 28.9872C10.2255 28.7673 10.2695 28.6134 10.3794 28.6574C10.5113 28.7014 14.4246 30.9658 19.1072 33.6698ZM47.1593 34.2854V39.7375L40.3002 43.6947C36.5189 45.8712 32.9574 47.9377 32.3858 48.2675L31.3305 48.883L31.3745 43.321L31.4405 37.7589L39.135 33.3181C43.378 30.8558 46.8955 28.8553 47.0054 28.8553C47.0934 28.8553 47.1593 31.2955 47.1593 34.2854ZM18.8434 34.813C23.4601 37.4731 27.3953 39.8035 27.5492 39.9574C27.7251 40.1113 27.813 40.441 27.7691 40.6829C27.7031 41.0786 26.6479 40.529 19.0193 36.1101C11.3907 31.7132 10.3355 31.0317 10.2695 30.5261C10.2255 30.2183 10.2475 29.9545 10.3135 29.9545C10.3574 29.9545 14.2047 32.1309 18.8434 34.813ZM19.1732 36.7037C26.5819 40.9906 27.813 41.7601 27.813 42.1998C27.813 42.4856 27.7471 42.7054 27.6592 42.7054C27.5712 42.7054 23.614 40.463 18.8654 37.715C11.4127 33.406 10.2255 32.6586 10.2255 32.2189C10.2255 31.9331 10.2915 31.7132 10.3794 31.7132C10.4454 31.7132 14.4026 33.9556 19.1732 36.7037ZM6.48818 33.7578V35.5825L7.65336 36.242C13.3473 39.5617 27.6372 47.8058 29.0881 48.6412L30.9348 49.6965L36.6728 46.3768C39.8385 44.5521 43.5759 42.4196 44.9609 41.6062L47.4891 40.1552L47.555 38.7702C47.599 37.8469 47.7089 37.4292 47.8848 37.4731C48.2805 37.5831 52.4356 39.9354 52.4356 40.0673C52.4356 40.3091 31.4405 52.2686 31.0228 52.2686C30.4732 52.2466 0.926133 35.2307 1.10201 35.0329C1.29987 34.835 6.13643 31.977 6.33429 31.9551C6.42223 31.9331 6.48818 32.7465 6.48818 33.7578ZM19.8987 38.8362C26.7138 42.7494 27.7031 43.4089 27.7691 43.8926C27.813 44.2004 27.7911 44.4642 27.7251 44.4642C27.5712 44.4642 10.8631 34.835 10.5113 34.5272C10.3574 34.3953 10.2255 34.0656 10.2255 33.7578V33.2301L11.1709 33.7798C11.6765 34.0875 15.6117 36.3519 19.8987 38.8362ZM19.2391 40.1332C23.658 42.6615 27.3953 44.8599 27.5492 45.0138C27.7251 45.1677 27.813 45.4974 27.7691 45.7613C27.7031 46.179 26.7578 45.6733 19.0193 41.2105C11.1709 36.6597 10.3355 36.1321 10.2695 35.5825C10.1816 34.835 9.10433 34.3074 19.2391 40.1332ZM19.1292 41.7601C26.7578 46.157 28.6045 47.3441 27.5272 47.0583C27.3734 47.0144 23.4162 44.772 18.7335 42.0679C11.4127 37.8469 9.69791 36.7696 10.3574 36.7696C10.4234 36.7696 14.3806 39.012 19.1292 41.7601Z" fill="#410EB5"/>
<path d="M39.135 35.4508L32.7595 39.1442L32.6936 40.5072C32.6276 41.7603 32.6716 41.8702 33.0233 41.7383C33.2432 41.6504 36.2111 39.9796 39.6186 38.023L45.8182 34.4615L45.8402 33.0765C45.8402 32.329 45.7743 31.7135 45.6863 31.7354C45.5764 31.7354 42.6525 33.4062 39.135 35.4508ZM45.4005 33.2304V34.0878L39.3109 37.6273L33.1992 41.1448L33.1332 40.3533C33.0893 39.8477 33.1772 39.4959 33.3531 39.386C34.1225 38.9023 45.2906 32.417 45.3566 32.395C45.3786 32.373 45.4005 32.7687 45.4005 33.2304Z" fill="#410EB5"/>
</svg>
