<svg width="54" height="53" viewBox="0 0 54 53" fill="none" xmlns="http://www.w3.org/2000/svg">
<path d="M9.95971 17.7399L22.9542 6.64908L13.6842 3.09009L0.27594 13.9326L9.95971 17.7399Z" fill="#A4FCF5"/>
<path d="M15.505 44.3908L28.8306 33.3827L19.2296 29.2444L6.15234 40.418L15.505 44.3908Z" fill="#A4FCF5"/>
<path d="M44.6391 14.5119L28.4167 4.82808L36.7762 0.193115L52.7503 9.71135L44.6391 14.5119Z" fill="#A4FCF5"/>
<path d="M37.6867 5.49025L36.4452 5.15918L34.7071 5.82132V7.31113L35.2037 8.05603L36.4452 8.30434L38.1833 7.6422V6.06962L37.6867 5.49025Z" fill="#F7CCBF"/>
<path d="M41.6596 3.0901L40.418 2.75903L38.6799 3.42117V4.91098L39.1765 5.65589L40.418 5.90419L42.1562 5.24205V3.66947L41.6596 3.0901Z" fill="#F7CCBF"/>
<path d="M45.4668 5.40749L44.2253 5.07642L42.4872 5.73855V7.22836L42.9838 7.97327L44.2253 8.22157L45.9634 7.55943V5.98686L45.4668 5.40749Z" fill="#F7CCBF"/>
<path d="M49.4396 7.72511L48.1981 7.39404L46.46 8.05618V9.54599L46.9566 10.2909L48.1981 10.5392L49.9362 9.87706V8.30448L49.4396 7.72511Z" fill="#F7CCBF"/>
<path d="M45.4668 10.0425L44.2253 9.71143L42.4872 10.3736V11.8634L42.9838 12.6083L44.2253 12.8566L45.9634 12.1944V10.6219L45.4668 10.0425Z" fill="#F7CCBF"/>
<path d="M41.6596 7.72511L40.418 7.39404L38.6799 8.05618V9.54599L39.1765 10.2909L40.418 10.5392L42.1562 9.87706V8.30448L41.6596 7.72511Z" fill="#F7CCBF"/>
<path d="M33.7139 3.0901L32.4724 2.75903L30.7343 3.42117V4.91098L31.2309 5.65589L32.4724 5.90419L34.2105 5.49035V3.66947L33.7139 3.0901Z" fill="#F7CCBF"/>
<path d="M19.6434 5.57301L18.4019 5.24194L16.6638 5.90408V7.39389L17.1604 8.1388L18.4019 8.3871L20.14 7.97326V6.15238L19.6434 5.57301Z" fill="#F7CCBF"/>
<path d="M15.5051 3.91774L14.2636 3.58667L12.5255 4.24881V5.73862L13.0221 6.48352L14.2636 6.73183L16.0017 6.31799V4.49711L15.5051 3.91774Z" fill="#F7CCBF"/>
<path d="M12.3599 6.40065L11.1184 6.06958L9.38025 6.73172V8.22153L9.87685 8.96643L11.1184 9.21474L12.8565 8.8009V6.98002L12.3599 6.40065Z" fill="#F7CCBF"/>
<path d="M16.6638 8.22145L15.4223 7.89038L13.6842 8.55252V10.0423L14.1808 10.7872L15.4223 11.0355L17.1604 10.6217V8.80082L16.6638 8.22145Z" fill="#F7CCBF"/>
<path d="M13.5187 10.8701L12.2772 10.5391L10.5391 11.2012V12.691L11.0357 13.4359L12.2772 13.6842L14.0153 13.2704V11.4495L13.5187 10.8701Z" fill="#F7CCBF"/>
<path d="M9.04926 9.04909L7.80775 8.71802L6.06964 9.38016V10.87L6.56624 11.6149L7.80775 11.8632L9.54587 11.4493V9.62846L9.04926 9.04909Z" fill="#F7CCBF"/>
<path d="M6.06959 11.6978L4.82808 11.3667L3.08997 12.0288V13.5186L3.58657 14.2636L4.82808 14.5119L6.56619 14.098V12.2771L6.06959 11.6978Z" fill="#F7CCBF"/>
<path d="M10.3735 13.353L9.13197 13.022L7.39386 13.6841V15.1739L7.89046 15.9188L9.13197 16.1671L10.8701 15.7533V13.9324L10.3735 13.353Z" fill="#F7CCBF"/>
<path d="M14.843 35.5347L13.6015 35.2036L11.8633 35.8658V37.3556L12.3599 38.1005L13.6015 38.3488L15.3396 37.9349V36.1141L14.843 35.5347Z" fill="#F7CCBF"/>
<path d="M17.9882 32.886L16.7467 32.5549L15.0085 33.2171V34.7069L15.5051 35.4518L16.7467 35.7001L18.4848 35.2863V33.4654L17.9882 32.886Z" fill="#F7CCBF"/>
<path d="M21.2988 30.4033L19.6434 29.7412L18.3192 30.7344V32.2242L18.8158 32.9691L20.0573 33.2174L21.7954 32.8036V30.9827L21.2988 30.4033Z" fill="#F7CCBF"/>
<path d="M25.6027 32.0584L23.9474 31.3962L22.6231 32.3894V33.8793L23.1197 34.6242L24.3612 34.8725L26.0993 34.4586V32.6377L25.6027 32.0584Z" fill="#F7CCBF"/>
<path d="M22.1265 34.8726L20.4712 34.2104L19.1469 35.2037V36.6935L19.6435 37.4384L20.885 37.6867L22.6231 37.2728V35.452L22.1265 34.8726Z" fill="#F7CCBF"/>
<path d="M22.2919 34.7073L20.5538 34.3762L19.3123 35.0384V36.5282L19.8089 37.2731L21.0504 37.5214L22.7885 37.1075V35.2867L22.2919 34.7073Z" fill="#F7CCBF"/>
<path d="M19.1469 37.19L17.4087 36.8589L16.1672 37.521V39.0108L16.6638 39.7557L17.9053 40.004L19.6435 39.5902V37.7693L19.1469 37.19Z" fill="#F7CCBF"/>
<path d="M16.0017 39.8386L14.2635 39.5076L13.022 40.1697V41.6595L13.5186 42.4044L14.7601 42.6527L16.4983 42.2389V40.418L16.0017 39.8386Z" fill="#F7CCBF"/>
<path d="M11.6978 38.0178L9.95971 37.6868L8.7182 38.3489V39.8387L9.2148 40.5836L10.4563 40.8319L12.1944 40.4181V38.5972L11.6978 38.0178Z" fill="#F7CCBF"/>
<path d="M37.6867 0.938003L36.4452 0.606934L34.7071 1.26907V2.75888L35.2037 3.50379L36.4452 3.75209L38.1833 3.33825V1.51737L37.6867 0.938003Z" fill="#F7CCBF"/>
<path d="M41.2457 46.8739L25.0233 37.3557L33.3828 32.6379L49.6052 41.8251L41.2457 46.8739Z" fill="#A4FCF5"/>
<path d="M40.1697 21.7955L34.0449 13.5188L44.7219 19.478L49.2741 16.8295L50.3501 18.071L50.5156 18.8987L40.1697 21.7955Z" fill="#A4FCF5"/>
<path d="M26.3477 18.9813L31.7275 15.8362L40.1698 26.5132L50.3502 23.8646L42.7356 28.5823L26.3477 18.9813Z" fill="#A4FCF5"/>
<path d="M22.7885 12.0288L9.38025 23.1196L10.7045 23.9473L27.0924 14.5946L24.775 12.8565L22.7885 12.0288Z" fill="#A4FCF5"/>
<path d="M22.9542 7.06299L9.79419 17.9055V22.706L23.2025 11.9463L22.9542 7.06299Z" fill="#80AEFF"/>
<path d="M42.8183 37.6866V28.7477L26.0165 19.064V28.3339L26.7614 29.2443L31.4792 32.0584L33.3001 32.6378L42.8183 37.6866Z" fill="#80AEFF"/>
<path d="M27.1753 14.5117L10.7874 24.1127V33.7965L25.851 25.1887L26.0993 21.4642V19.2295L27.4236 18.1535L27.1753 14.5117Z" fill="#80AEFF"/>
<path d="M44.5564 14.5946L28.1685 5.24194V10.0424L30.7343 11.4495V14.098L40.1698 26.4304V21.7126L33.7967 13.4359L44.5564 19.3951V14.5946Z" fill="#80AEFF"/>
<path d="M50.6812 23.6989V18.8984L40.087 21.8781V24.6921V26.4303L50.6812 23.6989Z" fill="#CDAEFB"/>
<path d="M41.2457 46.9565L25.1888 37.521L24.6922 36.8589L15.4223 44.4735L15.6706 48.8601L24.6922 42.156L41.2457 51.3432V46.9565Z" fill="#80AEFF"/>
<path d="M28.5824 33.5483L25.1061 36.528H26.0166L29.1617 34.7071L28.5824 33.5483Z" fill="#80AEFF"/>
<path d="M42.3217 42.4043L40.5008 41.825L39.1765 42.8182V44.308L40.087 44.8873L41.2457 45.0529L42.6527 44.3907V43.0665L42.3217 42.4043Z" fill="#F7CCBF"/>
<path d="M38.5144 40.2525L36.6935 39.6731L35.7831 40.1697L35.3693 40.6663V42.1561L36.2797 42.7355L37.4384 42.901L38.8455 42.2389V40.9146L38.5144 40.2525Z" fill="#F7CCBF"/>
<path d="M34.5416 37.9351L32.7207 37.3557L31.8103 37.8523L31.3964 38.3489V39.8387L32.3069 40.4181L33.4656 40.5836L34.8726 39.9215V38.5972L34.5416 37.9351Z" fill="#F7CCBF"/>
<path d="M30.7342 35.6175L28.9133 35.0381L28.0029 35.5347L27.5891 36.0313V37.5211L28.4995 38.1005L29.6582 38.266L31.0653 37.6039V36.2796L30.7342 35.6175Z" fill="#F7CCBF"/>
<path d="M35.314 5.25281C34.6298 5.58387 34.5415 5.73837 34.4753 6.6433C34.4312 7.39372 34.5195 7.72479 34.8285 8.01171C35.4465 8.58557 36.6383 8.71799 37.5653 8.32071C38.2495 8.03379 38.3599 7.87929 38.4702 7.04058C38.6247 5.82666 38.3819 5.36316 37.3446 5.07624C36.2631 4.78931 36.2189 4.78931 35.314 5.25281ZM37.2784 5.53973C37.7198 5.69423 37.9626 5.93701 37.9626 6.20187C37.9626 7.06265 36.1748 7.37165 35.292 6.6433C34.8505 6.29016 34.8285 6.1798 35.0712 5.89287C35.2257 5.69423 35.5568 5.49559 35.8217 5.45145C36.0865 5.4073 36.3734 5.34109 36.4397 5.31902C36.5059 5.31902 36.8811 5.4073 37.2784 5.53973ZM36.8811 7.45993C38.1833 7.3275 38.2936 7.61443 37.1018 7.96757C36.4397 8.16621 36.1307 8.16621 35.6451 7.92343C35.292 7.74686 34.9609 7.482 34.9167 7.3275C34.8505 7.08472 34.9167 7.06265 35.314 7.28336C35.601 7.43786 36.2631 7.50408 36.8811 7.45993Z" fill="#410EB5"/>
<path d="M38.713 7.83532C38.3819 8.16639 38.2054 8.5416 38.2716 8.74024C38.3378 8.93888 38.404 9.3141 38.404 9.62309C38.404 10.2411 39.3531 10.8149 40.3904 10.8149C40.7656 10.8149 41.3616 10.6604 41.7147 10.4839C42.3106 10.1749 42.3768 10.0424 42.3768 9.04924C42.3768 7.70289 41.8913 7.28354 40.3242 7.28354C39.4855 7.28354 39.1544 7.39389 38.713 7.83532ZM41.5161 7.94568C42.4431 8.45332 41.7368 9.26995 40.3904 9.26995C39.1324 9.26995 38.4702 8.62989 39.1103 7.98982C39.4414 7.65875 40.9201 7.63668 41.5161 7.94568ZM41.9354 9.73345C41.9354 10.1087 40.5449 10.4397 39.7724 10.2411C38.4482 9.91002 38.7351 9.60102 40.3904 9.60102C41.2512 9.60102 41.9354 9.66724 41.9354 9.73345Z" fill="#410EB5"/>
<path d="M42.73 9.95403C42.2886 10.3072 42.1561 10.5941 42.1561 11.2562C42.1561 11.9184 42.2886 12.2053 42.73 12.5584C43.657 13.2868 45.6213 13.1102 46.1731 12.2715C46.2614 12.1391 46.3497 11.6756 46.3497 11.2562C46.3497 10.8369 46.2614 10.3734 46.1731 10.241C45.6213 9.40225 43.657 9.22568 42.73 9.95403ZM45.5992 10.3955C45.9965 10.8369 45.9965 10.859 45.5772 11.168C45.0033 11.5873 43.37 11.5652 42.9286 11.1238C42.5976 10.7927 42.5976 10.7265 42.9507 10.3513C43.4804 9.75539 45.0475 9.77746 45.5992 10.3955ZM44.2529 12.0067C44.4957 12.0067 45.0033 11.9404 45.3565 11.8522L46.0186 11.6977L45.4889 12.1391C45.202 12.3819 44.6502 12.5805 44.2529 12.5805C43.8556 12.5805 43.3038 12.3819 43.0169 12.1391L42.4872 11.6977L43.1493 11.8522C43.5245 11.9404 44.0101 12.0067 44.2529 12.0067Z" fill="#410EB5"/>
<path d="M31.6061 37.6535C31.2308 37.8963 31.1205 38.2053 31.1205 38.9116C31.1205 39.4192 31.2088 39.949 31.2971 40.0814C31.7826 40.8097 33.4159 41.0525 34.4312 40.5449C34.8285 40.3462 35.0271 39.9931 35.1595 39.2868C35.3361 38.3819 35.314 38.2715 34.7622 37.808C34.056 37.19 32.3785 37.1018 31.6061 37.6535ZM34.5195 38.2495C34.8505 38.7792 34.1884 39.2868 33.151 39.2868C31.7826 39.2868 31.0543 38.4922 31.9592 37.9846C32.5551 37.6094 34.2325 37.786 34.5195 38.2495ZM34.6519 39.7945C34.6519 40.0152 33.6366 40.3904 32.9965 40.3904C32.7317 40.3904 32.2682 40.2138 32.0254 39.9931C31.5619 39.6179 31.584 39.6179 33.0848 39.6179C33.9456 39.6179 34.6519 39.6841 34.6519 39.7945Z" fill="#410EB5"/>
<path d="M35.4023 40.0594C34.9388 40.5229 34.8726 40.7437 35.005 41.4279C35.1816 42.5756 35.7996 43.0391 37.0576 43.0391C38.5585 43.0391 39.0661 42.5976 39.0661 41.2734C39.0661 39.927 38.5806 39.5077 37.0135 39.5077C36.1748 39.5077 35.8437 39.618 35.4023 40.0594ZM38.2053 40.1698C39.2206 40.7216 38.3157 41.5603 36.8149 41.4499C35.6892 41.3616 35.1816 40.7657 35.8437 40.2581C36.3514 39.9049 37.5874 39.8387 38.2053 40.1698ZM37.8081 41.9134C38.6247 41.6706 38.8896 41.8693 38.3157 42.2886C37.8081 42.6418 36.5721 42.6859 35.9541 42.3769C35.2699 42.0017 35.4685 41.7369 36.3293 41.9355C36.7486 42.0459 37.4108 42.0238 37.8081 41.9134Z" fill="#410EB5"/>
<path d="M39.4193 42.1782C38.9779 42.5313 38.8455 42.8183 38.8455 43.5025C38.8455 44.7605 39.4193 45.2461 40.9422 45.2461C42.4651 45.2461 43.039 44.7605 43.039 43.5025C43.039 42.8183 42.9066 42.5313 42.4651 42.1782C41.6706 41.5602 40.2139 41.5602 39.4193 42.1782ZM42.1782 42.5975C42.7079 43.039 42.7079 43.039 42.2886 43.37C42.0458 43.5466 41.4499 43.7011 40.9422 43.7011C40.4346 43.7011 39.8387 43.5466 39.5959 43.37C39.1765 43.039 39.1765 43.039 39.7062 42.5975C39.9932 42.3548 40.5449 42.1561 40.9422 42.1561C41.3395 42.1561 41.8913 42.3548 42.1782 42.5975ZM40.5008 44.275C40.7657 44.3412 41.3616 44.297 41.803 44.1867C42.6859 43.9218 42.7521 43.966 42.2444 44.4515C41.7147 45.0033 40.1035 44.915 39.5959 44.3191C39.1986 43.8777 39.1986 43.8556 39.5738 43.988C39.8166 44.0763 40.2139 44.2087 40.5008 44.275Z" fill="#410EB5"/>
<path d="M44.6392 19.478V14.5119L53.1642 9.79419V14.5119L44.6392 19.478Z" fill="#CDAEFB"/>
<path d="M42.6527 33.6313V28.6652L51.1777 23.9475V28.6652L42.6527 33.6313Z" fill="#CDAEFB"/>
<path d="M42.6527 38.1005V33.1345L51.1777 28.4167V33.1345L42.6527 38.1005Z" fill="#CDAEFB"/>
<path d="M41.494 51.5917V46.9228L49.6052 42.4873V46.9228L41.494 51.5917Z" fill="#CDAEFB"/>
<path d="M10.7874 33.5484V23.9474L2.42786 19.9746V29.1456L10.7874 33.5484Z" fill="#CDAEFB"/>
<path d="M15.4223 49.0258V44.308L5.90407 40.3352L6.0696 45.3012L15.4223 49.0258Z" fill="#CDAEFB"/>
<path d="M9.79419 22.5404V17.8227L0.275954 13.8499L0.441488 18.8159L9.79419 22.5404Z" fill="#CDAEFB"/>
<path d="M24.1129 12.6909L22.8714 12.3599L21.2988 13.2703L21.1333 14.5118L21.6299 15.2567L22.8714 15.505L24.6095 15.0912V13.2703L24.1129 12.6909Z" fill="#F7CCBF"/>
<path d="M20.3055 14.8428H19.7262L17.9881 16.0843L17.3259 16.6637L17.8225 17.4086L19.064 17.6569L20.8022 17.243V15.4221L20.3055 14.8428Z" fill="#F7CCBF"/>
<path d="M16.4273 17.657H15.9583L14.5513 18.6794L14.0153 19.1565L14.4173 19.77L15.4223 19.9745L16.8293 19.6337V18.1341L16.4273 17.657Z" fill="#F7CCBF"/>
<path d="M12.3119 21.1332H12.0637L11.3192 21.6442L11.0356 21.8826L11.2483 22.1892L11.7801 22.2914L12.5246 22.1211L12.8555 20.9678L12.3119 21.1332Z" fill="#F7CCBF"/>
<path d="M31.893 17.3259L30.6515 16.9949H29.5755L28.9134 17.657V19.1468L29.41 19.8917L30.6515 20.14L32.3896 19.4779V17.9053L31.893 17.3259Z" fill="#F7CCBF"/>
<path d="M35.2865 20.3055L34.4588 19.1467H33.3828L32.7207 19.8089V21.2987L33.2173 22.0436L34.4588 22.2919L36.1969 21.6297L35.7003 20.8021L35.2865 20.3055Z" fill="#F7CCBF"/>
<path d="M37.9147 23.5027L37.5207 22.9541H37.0086L36.6935 23.2676V23.9729L36.9298 24.3256L37.5207 24.4431L38.348 24.1297L38.1116 23.7378L37.9147 23.5027Z" fill="#F7CCBF"/>
<path d="M42.4628 25.955L43.0576 25.6351L43.5177 25.8599L43.8942 26.0798L43.5177 26.6782L43.1496 26.6782L42.4628 26.761L41.7982 26.3281L42.1826 26.0798L42.4628 25.955Z" fill="#F7CCBF"/>
<path d="M42.7355 18.4847L41.494 17.657L40.418 17.8225L40.0042 19.4779L40.5008 20.2228L41.7423 20.4711L43.4804 19.8089V18.9813L42.7355 18.4847Z" fill="#F7CCBF"/>
<path d="M39.0221 16.3421L38.4903 16.0015L38.0294 16.0696L37.8522 16.7509L38.0649 17.0574L38.5967 17.1596L39.4239 16.9114L39.3412 16.5465L39.0221 16.3421Z" fill="#F7CCBF"/>
<path d="M46.8869 18.1438L47.671 17.657L48.3506 17.7544L48.612 18.436L47.9498 18.8157L47.4532 19.064L46.2945 18.9576L46.4165 18.436L46.8869 18.1438Z" fill="#F7CCBF"/>
<path d="M34.5416 33.2171L32.8862 32.5549L31.562 33.5481V35.0379L32.0586 35.7829L33.3001 36.0312L35.0382 35.6173V33.7964L34.5416 33.2171Z" fill="#F7CCBF"/>
<path d="M38.3489 35.5347L36.6935 34.8726L35.3693 35.8658V37.3556L35.8659 38.1005L37.1074 38.3488L38.8455 37.9349V36.1141L38.3489 35.5347Z" fill="#F7CCBF"/>
<path d="M42.6527 37.604L40.5008 37.3557L39.1765 38.3489V39.8387L40.087 40.4181L41.2457 40.5836L42.6527 39.9215V38.5972V37.604Z" fill="#F7CCBF"/>
<path d="M46.4601 39.7559L44.3081 39.5076L42.9838 40.5008V41.9906L43.8943 42.57L45.053 42.7355L46.4601 42.0734V40.7491V39.7559Z" fill="#F7CCBF"/>
<path d="M34.3208 1.19178C33.2393 1.83185 31.3191 2.93541 30.0831 3.66376L27.8098 4.96597V7.54831V10.1306L29.1341 10.859L30.4584 11.5873V12.9337C30.4584 13.949 30.5687 14.4345 30.8998 14.8539C31.1426 15.1629 31.3412 15.494 31.3412 15.6043C31.3412 15.6926 30.5246 16.2444 29.5093 16.8182L27.6994 17.8556L27.6332 16.112L27.567 14.3683L25.4923 13.1323L23.4176 11.8743L23.3514 9.22573L23.2852 6.57717L18.4516 4.61283C14.3243 2.93541 13.5518 2.69263 13.2207 2.91334C13 3.06784 9.93207 5.58397 6.42274 8.49738L0 13.7945V16.3989V19.0033L0.993207 19.4227L1.98641 19.842L2.03056 24.499L2.09677 29.1561L6.42274 31.6501L10.7708 34.1442L14.3684 32.0916C16.3327 30.9439 17.8777 30.0831 17.7894 30.1714C17.7012 30.2817 14.9423 32.5771 11.6536 35.314L5.67232 40.28L5.71646 42.8182C5.73853 44.2087 5.82682 45.4226 5.9151 45.5109C6.0696 45.6433 15.3395 49.4396 15.5161 49.4396C15.5823 49.4396 17.5908 47.8063 19.9966 45.8199C22.6893 43.5907 24.477 42.2664 24.6095 42.3768C24.7419 42.4871 28.5602 44.7163 33.0848 47.3207L41.3395 52.0881L45.6655 49.5941L49.9914 47.1L50.0576 44.4515L50.1018 41.825L46.9015 39.971L43.679 38.1391L47.5636 35.9099L51.4261 33.6807V28.5381C51.4261 25.1833 51.3378 23.3734 51.1833 23.2851C51.0508 23.1968 50.9846 22.2919 51.0067 20.9676C51.0509 18.8488 51.0288 18.7605 50.3666 17.8556L49.6824 16.9286L51.5364 15.8471L53.4125 14.7435V12.1612V9.57887L45.1137 4.7894C40.567 2.16292 36.7045 -6.48499e-05 36.5721 -6.48499e-05C36.4176 -6.48499e-05 35.4244 0.529648 34.3208 1.19178ZM37.8743 1.34628C38.2716 1.78771 38.2716 1.80978 37.8522 2.11878C37.2784 2.53813 35.6451 2.51606 35.2037 2.07463C34.8726 1.74356 34.8726 1.67735 35.2257 1.30214C35.7555 0.706215 37.3225 0.728287 37.8743 1.34628ZM39.5517 2.78092C38.5806 3.13406 38.404 3.39891 38.404 4.56869C38.404 5.71639 38.9558 6.17989 40.3904 6.17989C41.5602 6.17989 42.3768 5.69432 42.3768 5.01011C42.3768 4.03897 42.7079 3.8624 43.4804 4.34797L44.2088 4.81147L43.3921 5.07633C42.3768 5.4074 42.1341 5.8709 42.3327 7.08482C42.4872 7.94559 42.5976 8.10009 43.2597 8.3208C44.1646 8.65187 45.4227 8.49737 45.9745 8.0118C46.1952 7.81316 46.3497 7.34967 46.3497 6.90824C46.3497 6.04746 46.438 6.02539 47.4532 6.66545L48.2257 7.15103L47.4532 7.30552C46.5262 7.50417 46.129 8.01181 46.129 9.04916C46.129 10.2189 46.747 10.7045 48.2257 10.7045C49.6604 10.7045 50.3225 10.2189 50.3225 9.11537C50.3225 8.71809 50.3666 8.38702 50.4329 8.38702C50.6094 8.38702 52.5296 9.60094 52.5296 9.7113C52.5076 9.93201 44.7605 14.2359 44.4957 14.1697C44.1205 14.0593 29.2886 5.49568 28.9796 5.20876C28.7809 5.03218 28.9134 4.85562 29.5755 4.45833L30.4584 3.95069V4.6349C30.4584 5.69432 31.1205 6.17989 32.5551 6.17989C34.078 6.17989 34.6519 5.69432 34.6519 4.45833C34.6519 3.55341 34.2546 3.04577 33.3497 2.75884C32.8421 2.60434 32.8421 2.60435 33.5263 2.18499C34.4091 1.65528 34.4312 1.65528 34.4312 2.36156C34.4312 3.11198 34.6078 3.37684 35.2478 3.72998C36.1969 4.21555 37.9847 3.92862 38.4482 3.22234C38.5364 3.08991 38.6247 2.64849 38.6247 2.25121V1.52285L39.4855 2.03049L40.3463 2.51606L39.5517 2.78092ZM36.528 2.95749C36.7707 2.95749 37.2784 2.89127 37.6315 2.80299L38.2937 2.64849L37.7639 3.08991C37.477 3.3327 36.9252 3.53134 36.528 3.53134C36.1307 3.53134 35.5789 3.3327 35.292 3.08991L34.7623 2.64849L35.4244 2.80299C35.7996 2.89127 36.2852 2.95749 36.528 2.95749ZM33.9456 3.61962C34.7181 4.39212 32.8421 5.16461 31.6281 4.59076C31.2971 4.43626 31.0101 4.14933 31.0101 3.97276C31.0101 3.13405 33.2173 2.8692 33.9456 3.61962ZM41.5161 3.31062C42.2223 3.70791 42.0458 4.37004 41.1629 4.61283C39.5517 5.05426 38.0067 3.99483 39.3531 3.35477C39.9931 3.04577 40.9643 3.0237 41.5161 3.31062ZM15.472 4.17141C15.8913 4.50248 15.9355 4.6349 15.7147 4.92183C15.0747 5.69432 12.8013 5.47361 12.8013 4.6349C12.8013 3.75205 14.567 3.44305 15.472 4.17141ZM17.348 5.34118C16.5976 5.71639 16.5535 5.82675 16.5535 6.79789V7.83524L15.4499 7.76902C14.5229 7.70281 14.2801 7.76902 13.7945 8.25459C13.309 8.74016 13.2428 8.96087 13.3752 9.60094L13.5076 10.3734H12.2716C10.7266 10.3734 10.1528 10.8369 10.1528 12.1391V13.022H9.09336C7.61459 13.022 7.06281 13.4634 7.06281 14.6773C7.06281 15.803 7.41595 16.2665 8.49744 16.4651C10.1307 16.752 11.0136 16.1782 11.0798 14.7877L11.1239 13.7945L12.1392 13.8607C12.9117 13.9269 13.2869 13.8386 13.7725 13.4413C14.3022 13.022 14.3684 12.8233 14.3022 12.0508C14.236 11.1459 14.236 11.1459 14.9423 11.2121C16.5755 11.4108 17.4363 10.7928 17.4363 9.46851V8.60773H18.5178C19.9304 8.60773 20.5263 8.14423 20.5925 6.93031L20.6366 6.02539L21.5857 6.37853C22.0933 6.5551 22.5127 6.79789 22.5127 6.88617C22.5127 7.06274 9.99829 17.4362 9.77757 17.4362C9.66722 17.4362 7.59252 16.6417 5.16468 15.6485L0.728352 13.8386L1.41256 13.2648C2.80305 12.095 2.75891 12.095 2.80305 13.0882C2.84719 13.5958 3.00169 14.1255 3.17826 14.3021C3.66383 14.7877 5.34125 14.898 6.13581 14.4787C6.77588 14.1476 6.84209 14.0152 6.84209 13.0661V12.0288L7.90152 12.095C9.31408 12.2053 9.91 11.7198 9.99829 10.4396L10.0424 9.49058H10.9915C11.9406 9.49058 12.7793 9.20366 13.0662 8.74016C13.1545 8.60773 13.2428 8.12216 13.2428 7.65866V6.84203H14.3022C15.781 6.84203 16.3327 6.4006 16.3327 5.18668V4.23762L17.2377 4.59076L18.1426 4.9439L17.348 5.34118ZM12.3378 5.62811C12.3599 6.02539 12.2496 6.06953 11.3226 5.98125L10.3073 5.91504L11.1681 5.18668C12.073 4.41419 12.3158 4.50247 12.3378 5.62811ZM33.4159 5.14254C34.2546 4.87769 34.4974 5.12047 33.7911 5.51775C33.129 5.84882 31.6502 5.7826 31.2529 5.38532C30.7674 4.89975 30.7894 4.87769 31.7606 5.14254C32.3786 5.31911 32.8641 5.31911 33.4159 5.14254ZM41.1629 5.14254C41.9796 4.87769 42.2223 5.12047 41.5161 5.51775C40.6774 5.95918 38.8454 5.65018 38.8454 5.0984C38.8454 4.98804 39.1986 5.01011 39.6179 5.14254C40.1697 5.29704 40.6111 5.29704 41.1629 5.14254ZM45.6655 5.84882C45.9965 6.17989 45.9745 6.2461 45.4889 6.64339C44.6502 7.32759 42.8183 7.04067 42.8183 6.22403C42.8183 5.34118 44.893 5.07633 45.6655 5.84882ZM15.0085 5.82675C15.9355 5.5619 16.2003 5.78261 15.472 6.17989C14.876 6.48889 13.3973 6.46682 13.0662 6.13575C12.6027 5.67225 12.7793 5.53983 13.4635 5.80468C13.927 5.98125 14.3684 5.98125 15.0085 5.82675ZM19.7759 5.82675C20.1069 6.09161 20.1511 6.22403 19.9524 6.5551C19.7538 6.8641 19.4227 6.95238 18.5399 6.95238C17.657 6.95238 17.3259 6.8641 17.1273 6.5551C16.7962 6.00332 17.4584 5.51775 18.5399 5.51775C18.9813 5.51775 19.5331 5.65018 19.7759 5.82675ZM36.4397 10.241L44.2529 14.7435L44.3191 16.8624C44.3412 18.0322 44.3191 18.9812 44.275 18.9812C44.1205 18.9812 28.8913 10.1748 28.5382 9.88786C28.2071 9.62301 28.1409 5.73847 28.4499 5.73847C28.5602 5.73847 32.1578 7.76902 36.4397 10.241ZM12.382 6.84203C12.9117 7.28345 12.9117 7.28345 12.4923 7.61452C12.2496 7.79109 11.6536 7.94559 11.146 7.94559C10.6384 7.94559 10.0424 7.79109 9.79964 7.61452C9.38029 7.28345 9.38029 7.28345 9.91 6.84203C10.1969 6.59925 10.7487 6.4006 11.146 6.4006C11.5433 6.4006 12.0951 6.59925 12.382 6.84203ZM9.04922 7.83524C9.04922 8.60773 9.04922 8.60773 8.03394 8.60773H7.01866L7.94566 7.83524C8.4533 7.41588 8.91679 7.06274 8.96094 7.06274C9.00508 7.06274 9.04922 7.41588 9.04922 7.83524ZM45.6434 7.65866C45.1578 8.12216 43.5687 8.12216 43.0831 7.65866C42.7741 7.32759 42.8183 7.30553 43.8556 7.41588C44.4736 7.50417 45.1358 7.46002 45.3785 7.32759C45.9303 7.0186 46.0848 7.19517 45.6434 7.65866ZM19.4227 7.54831C20.1511 7.28345 20.3276 7.57038 19.6655 7.94559C18.8489 8.36494 16.9949 8.07802 16.9949 7.52624C16.9949 7.41588 17.3922 7.43795 17.8777 7.54831C18.4737 7.70281 18.9592 7.70281 19.4227 7.54831ZM22.9541 9.55679V11.6315L16.9507 16.5755C13.6621 19.2902 10.7708 21.6518 10.5501 21.8063C10.1749 22.0712 10.1528 21.9829 10.1528 20.0186V17.9439L16.4872 12.713C19.9745 9.84372 22.8438 7.50417 22.8879 7.50417C22.9321 7.50417 22.9541 8.43116 22.9541 9.55679ZM49.5721 8.05595C49.9914 8.38702 49.9914 8.38702 49.4617 8.82845C49.1748 9.07123 48.623 9.26987 48.2257 9.26987C47.8284 9.26987 47.2767 9.07123 46.9897 8.82845C46.46 8.38702 46.46 8.38702 46.8794 8.05595C47.1222 7.87938 47.7181 7.72488 48.2257 7.72488C48.7334 7.72488 49.3293 7.87938 49.5721 8.05595ZM11.146 8.49738C11.5212 8.49738 12.0509 8.40909 12.3599 8.29873C12.9117 8.10009 12.9117 8.10009 12.4923 8.58566C12.1833 8.91673 11.8081 9.04916 11.146 9.04916C10.4839 9.04916 10.1086 8.91673 9.79964 8.58566C9.38029 8.10009 9.38029 8.10009 9.93207 8.29873C10.2411 8.40909 10.7929 8.49738 11.146 8.49738ZM16.5755 8.38702C17.5908 8.9388 16.6859 9.7775 15.185 9.66715C14.0594 9.57887 13.5518 8.98294 14.2139 8.4753C14.7215 8.12216 15.9575 8.05595 16.5755 8.38702ZM9.18165 9.35815C9.51272 9.623 9.55686 9.75544 9.35822 10.0865C8.87265 10.859 6.40067 10.6383 6.40067 9.82165C6.40067 9.0933 8.36501 8.76223 9.18165 9.35815ZM5.95924 10.3734V11.2563H4.92189H3.86247L4.85568 10.3734C5.40746 9.90993 5.87096 9.51265 5.9151 9.49058C5.93717 9.49058 5.95924 9.88786 5.95924 10.3734ZM49.5279 9.93201C49.3293 10.1306 48.7996 10.2631 48.2257 10.2631C47.6519 10.2631 47.1222 10.1306 46.9235 9.93201C46.6145 9.64508 46.769 9.60094 48.2257 9.60094C49.6824 9.60094 49.8369 9.64508 49.5279 9.93201ZM16.1782 10.1306C16.9287 9.90993 17.2156 10.0203 16.8404 10.3955C16.4872 10.7486 14.8981 10.9031 14.3684 10.6162C13.64 10.2189 13.8166 9.95408 14.6995 10.1527C15.1188 10.2631 15.781 10.241 16.1782 10.1306ZM52.9711 12.3157V14.4566L49.9473 16.2223C48.2699 17.1714 46.4821 18.2087 45.9524 18.4957L45.0033 19.0254L45.0695 16.8624L45.1357 14.6994L48.9982 12.4481C51.1171 11.1901 52.8828 10.1748 52.9269 10.1748C52.949 10.1527 52.9711 11.1239 52.9711 12.3157ZM7.21731 11.0135C7.59252 11.1239 8.27673 11.1459 8.71815 11.0356C9.66722 10.8149 9.68929 11.2342 8.76229 11.5653C8.07808 11.8081 6.59931 11.4991 6.44481 11.0797C6.35653 10.7707 6.33446 10.7707 7.21731 11.0135ZM13.5738 11.168C13.9049 11.4991 13.9049 11.5653 13.5518 11.9405C13.022 12.5364 11.455 12.5143 10.9032 11.8963C10.5059 11.4549 10.5059 11.4329 10.9253 11.1239C11.4991 10.7045 13.1324 10.7266 13.5738 11.168ZM5.98131 11.9184C6.90831 12.4261 6.20203 13.2427 4.85568 13.2427C3.59762 13.2427 2.93548 12.6026 3.57555 11.9626C3.90661 11.6315 5.38539 11.6094 5.98131 11.9184ZM36.5721 17.5687L39.7504 21.8063L39.6841 23.6824L39.6179 25.5364L35.2699 19.7758C31.0543 14.1918 30.8998 13.9711 30.8998 12.9778V11.9405L32.1358 12.6468C33.2393 13.2648 33.769 13.8607 36.5721 17.5687ZM13.4414 13.0661C13.1986 13.2868 12.6468 13.4634 12.2496 13.4634C11.8523 13.4634 11.3005 13.2868 11.0577 13.0661C10.5942 12.6909 10.6163 12.6909 12.2496 12.6909C13.8828 12.6909 13.9049 12.6909 13.4414 13.0661ZM24.146 12.9337C24.3446 13.1103 24.4991 13.3089 24.4991 13.3531C24.4991 13.9931 22.3803 14.3904 21.6298 13.9048C21.3429 13.7062 21.3871 13.5958 21.9168 13.1323C22.6231 12.4923 23.6383 12.404 24.146 12.9337ZM6.40067 13.7062C6.40067 14.0814 5.01018 14.4125 4.23768 14.2138C2.91341 13.8828 3.20033 13.5738 4.85568 13.5738C5.71646 13.5738 6.40067 13.64 6.40067 13.7062ZM10.4618 13.9711C10.7929 14.5008 10.1307 15.0084 9.09336 15.0084C7.76909 15.0084 7.12902 14.3683 7.76909 13.7283C8.21051 13.2868 10.1528 13.4855 10.4618 13.9711ZM25.9779 13.9269C26.3972 14.1918 26.6621 14.4787 26.5517 14.567C26.4635 14.6553 23.0424 16.6417 18.9813 18.9812C14.9202 21.3208 11.4108 23.3513 11.2122 23.4838C10.9474 23.6383 10.6604 23.6162 10.2411 23.4176C9.66722 23.1748 9.66722 23.1306 10.0645 22.8658C10.2852 22.7113 10.8591 22.5126 11.3446 22.4464C12.6689 22.2478 13.2428 21.7622 13.2428 20.8573C13.2428 20.3938 13.3531 20.0848 13.5297 20.0627C13.6621 20.0627 14.3463 20.0627 15.0085 20.0627C16.6197 20.0848 16.9949 19.7758 17.0611 18.3632C17.1052 17.3259 17.1273 17.2817 17.5467 17.5687C18.1205 17.988 19.8641 17.9659 20.4821 17.5245C21.1222 17.0831 21.1884 15.1629 20.5925 14.8098C20.2614 14.6332 20.2394 14.5449 20.4821 14.3242C20.7029 14.0814 20.747 14.1035 20.747 14.3904C20.747 15.0084 21.8285 15.6705 22.8438 15.6705C24.0577 15.6705 24.9405 15.0084 24.9405 14.1035C24.9405 13.331 25.0068 13.331 25.9779 13.9269ZM37.477 16.2002C37.5653 16.9507 38.2937 17.4362 39.3089 17.4362H40.1035L39.9931 18.6281C39.9049 19.7317 39.949 19.842 40.4787 20.2172C41.3395 20.769 42.9286 20.7028 43.5908 20.0848C43.8777 19.8199 44.2088 19.6654 44.3412 19.7317C44.4736 19.8199 44.8047 19.7537 45.0695 19.5992C45.3565 19.4447 46.0848 19.3123 46.7249 19.2902C48.0271 19.2682 48.7113 18.8267 48.8217 17.9218C48.8658 17.6128 48.9982 17.3259 49.1086 17.2817C49.3734 17.1935 50.4329 18.4957 50.2563 18.6722C50.0356 18.915 40.5449 21.4311 40.2801 21.3208C40.1256 21.2766 38.7792 19.5992 37.2784 17.6349L34.5636 14.0373L35.9982 14.8318C37.1018 15.4498 37.4329 15.7588 37.477 16.2002ZM5.16468 16.2223L9.49065 17.966V20.151C9.49065 21.8063 9.42443 22.314 9.22579 22.2257C9.07129 22.1816 7.01866 21.3429 4.70118 20.3938L0.441425 18.6722V16.4872C0.441425 15.2953 0.52971 14.3463 0.640067 14.3904C0.750423 14.4125 2.78098 15.2512 5.16468 16.2223ZM24.0356 14.8318C23.7928 15.0525 23.241 15.2291 22.8438 15.2291C22.4465 15.2291 21.8947 15.0525 21.6519 14.8318C21.1884 14.4566 21.2105 14.4566 22.8438 14.4566C24.477 14.4566 24.4991 14.4566 24.0356 14.8318ZM20.438 15.3395C20.6587 15.9133 20.0849 16.3327 19.0696 16.3327H18.0984L18.8047 15.6705C19.5993 14.9643 20.2394 14.8318 20.438 15.3395ZM27.1477 16.5534C27.1477 18.0542 27.1256 18.1425 26.4855 18.4957C26.022 18.7605 25.8234 19.0474 25.8234 19.4227C25.8234 19.9744 23.837 21.1884 12.3158 27.7656L11.0356 28.4939V26.331L11.0577 24.168L18.9372 19.6213C23.2631 17.1052 26.8828 15.0525 26.9932 15.0305C27.0815 15.0084 27.1477 15.7147 27.1477 16.5534ZM10.5942 15.4719C10.5942 15.5602 10.3073 15.7368 9.95414 15.8913C9.24786 16.1782 8.12223 16.0237 7.76909 15.6043C7.59252 15.4057 7.92359 15.3395 9.07129 15.3395C9.91 15.3395 10.5942 15.4057 10.5942 15.4719ZM32.2461 16.5975C32.4006 16.8845 32.842 17.5025 33.2393 17.966L33.9677 18.8267L33.2614 19.1799C32.7096 19.4668 32.5331 19.6875 32.4889 20.2834C32.3786 21.4532 32.5993 21.9829 33.3276 22.2919C33.9456 22.5568 35.2257 22.5126 35.9762 22.2036C36.241 22.0933 36.3293 22.2698 36.3514 22.9982C36.4176 24.0576 36.9915 24.7198 37.8522 24.7198C38.1833 24.7198 38.6027 25.0288 39.0662 25.6026C39.4414 26.0882 39.7062 26.4855 39.6621 26.4855C39.5517 26.4855 26.927 19.2461 26.7283 19.0695C26.64 18.9812 28.0747 18.0984 28.3174 18.0984C28.4057 18.0984 28.4719 18.297 28.4719 18.5619C28.4719 19.7096 29.6417 20.46 31.0322 20.2393C32.202 20.0406 32.6655 19.533 32.6655 18.4074C32.6655 17.3921 32.1358 16.7741 31.275 16.7741C30.9219 16.7741 30.8998 16.7079 31.1205 16.443C31.5178 15.9795 31.9371 16.0237 32.2461 16.5975ZM39.2206 16.9507C38.8013 17.039 37.9626 16.6196 37.9626 16.3327C37.9626 16.2223 38.3157 16.2885 38.7572 16.5092C39.2648 16.752 39.4414 16.9065 39.2206 16.9507ZM20.2173 17.1272C19.6434 17.5466 18.2971 17.5245 17.7453 17.1052C17.348 16.7741 17.3922 16.752 18.2088 16.8845C18.6944 16.9507 19.4006 16.9065 19.7538 16.8182C20.5704 16.5755 20.7691 16.7079 20.2173 17.1272ZM32.0916 17.679C32.4448 18.0322 31.4516 18.7605 30.5908 18.7605C29.73 18.7605 28.8913 18.2087 29.0458 17.7673C29.3327 17.061 31.4295 16.9948 32.0916 17.679ZM16.5535 17.966C16.5535 18.1425 16.2224 18.3853 15.8472 18.5177L15.1188 18.7605L15.781 18.2087C16.5535 17.5687 16.5535 17.5687 16.5535 17.966ZM42.5976 19.0695C41.6706 19.4889 39.7945 18.3853 40.5891 17.8997C40.8098 17.7673 41.2512 17.8997 41.9575 18.2749C42.9066 18.8047 42.9728 18.8929 42.5976 19.0695ZM48.0933 18.4074C47.7843 18.7164 46.5704 19.0916 46.5704 18.8709C46.5704 18.7164 48.2037 17.8997 48.314 18.0101C48.3802 18.0763 48.2699 18.2529 48.0933 18.4074ZM16.2886 19.3344C16.0679 19.5551 15.6485 19.6434 14.9864 19.5992C14.0594 19.533 14.0373 19.5109 14.6774 19.3564C15.0526 19.2682 15.5823 19.1137 15.8913 19.0033C16.5976 18.7826 16.73 18.8929 16.2886 19.3344ZM30.5687 19.2019C31.0101 19.2019 31.5619 19.0916 31.8047 18.9812C32.2682 18.7164 32.3786 19.0254 31.9371 19.3785C31.1646 20.0406 29.3327 19.842 29.0458 19.0695C28.9575 18.8267 29.0016 18.8047 29.3548 18.9812C29.5755 19.0916 30.1273 19.2019 30.5687 19.2019ZM41.9354 19.6434C42.3106 19.6434 42.8183 19.533 43.0611 19.4227C43.5245 19.1578 43.6349 19.4006 43.2155 19.8199C42.6417 20.3938 40.3904 20.0406 40.3904 19.3785C40.3904 19.2682 40.5891 19.2902 40.8098 19.4227C41.0526 19.533 41.5602 19.6434 41.9354 19.6434ZM50.5432 21.3649V23.55L45.8641 24.8301C43.2818 25.5364 40.9864 26.1544 40.7656 26.2206C40.4125 26.3089 40.3684 26.1544 40.4346 24.1459L40.5008 21.9829L45.4668 20.6145C48.2037 19.8641 50.4549 19.224 50.4991 19.224C50.5211 19.2019 50.5432 20.1731 50.5432 21.3649ZM34.8505 20.0627C35.4685 20.9235 35.4465 20.9676 34.5195 20.9676C33.129 20.9676 32.3786 20.1951 33.2835 19.6654C33.9235 19.2902 34.387 19.4006 34.8505 20.0627ZM34.4753 24.2121L42.3768 28.7809V30.8335C42.3768 31.9591 42.3106 32.8861 42.2223 32.8861C42.1561 32.8861 38.5144 30.8335 34.1663 28.3174L26.2648 23.7486V21.696C26.2648 20.5704 26.331 19.6434 26.4193 19.6434C26.4855 19.6434 30.1273 21.696 34.4753 24.2121ZM4.01697 20.6807C4.78947 21.0118 6.5331 21.9167 7.90152 22.6892L10.3735 24.1238V26.2868V28.4277L6.46688 26.1765L2.5382 23.9031L2.47198 21.9829C2.44991 20.9456 2.44991 20.0848 2.51612 20.0848C2.58234 20.0848 3.24448 20.3496 4.01697 20.6807ZM25.7792 22.8658L25.713 24.9625L18.4737 29.1561C14.4788 31.4515 11.1901 33.3276 11.1239 33.3276C11.0798 33.3276 11.0356 32.4006 11.0356 31.2529V29.1782L18.275 24.9846C22.2478 22.6671 25.5806 20.769 25.6689 20.769C25.7572 20.7469 25.8013 21.696 25.7792 22.8658ZM12.6027 21.4974C12.382 21.7622 11.2563 22.1374 11.2563 21.9167C11.2563 21.7843 12.6689 20.9897 12.7572 21.078C12.8234 21.1442 12.7572 21.3208 12.6027 21.4974ZM34.8285 21.4091C36.241 21.4091 36.1748 21.8064 34.7402 22.005C34.056 22.0933 33.747 22.005 33.3276 21.6298C32.9083 21.2766 32.8862 21.1884 33.1731 21.2766C33.3938 21.3429 34.1443 21.4091 34.8285 21.4091ZM37.8522 24.0576C38.0288 24.3445 37.8302 24.3445 37.2784 24.0576C37.0577 23.9252 36.859 23.7266 36.859 23.5941C36.859 23.3513 37.6315 23.7045 37.8522 24.0576ZM50.9846 26.353V28.4277L47.1442 30.6569C45.0254 31.8929 43.2376 32.8861 43.1493 32.8861C43.0831 32.8861 43.0611 31.9371 43.0831 30.7673L43.1493 28.6484L46.9015 26.4855C48.9762 25.2715 50.7198 24.3004 50.8301 24.2783C50.9184 24.2783 50.9846 25.2053 50.9846 26.353ZM7.46009 27.3683L10.3514 29.0237L10.3735 31.1866V33.3496L9.09336 32.6213C8.38708 32.224 6.62138 31.1866 5.12053 30.3479L2.42784 28.8029V26.64V24.499L3.48726 25.095C4.06111 25.4481 5.84889 26.4634 7.46009 27.3683ZM34.5415 29.2002C38.5585 31.4956 41.9575 33.5041 42.112 33.6586C42.3106 33.8352 42.3768 34.4311 42.3327 35.6009L42.2665 37.2783L37.8743 34.7401C35.1816 33.1731 33.3276 32.224 33.0848 32.2902C32.8421 32.3564 31.4295 31.6722 29.5314 30.5686L26.3752 28.7367L26.309 26.6179L26.2427 24.477L26.7504 24.7418C27.0373 24.8963 30.5466 26.8827 34.5415 29.2002ZM48.9762 24.5873C48.932 24.6535 47.4974 25.4923 45.7979 26.4855L42.7079 28.2953L41.5602 27.6552C40.9201 27.3242 40.3904 26.971 40.3904 26.9048C40.3904 26.8165 41.0746 26.8165 41.9133 26.8827C43.2155 26.971 43.4804 26.9269 43.8556 26.5517C44.0984 26.3089 44.3412 25.9999 44.3853 25.8895C44.4295 25.7792 45.4227 25.426 46.5704 25.117C48.7334 24.5211 49.1527 24.4328 48.9762 24.5873ZM25.8234 27.2359C25.8234 29.1561 25.5365 28.8471 29.6417 31.2087L32.2461 32.7096L30.8556 33.5703C30.0831 34.0338 29.3989 34.409 29.3106 34.4311C29.2224 34.4311 29.1341 34.1221 29.0899 33.7469C29.0237 33.0627 28.9354 33.0186 24.3446 31.1646C21.7623 30.1051 19.6434 29.2002 19.6434 29.134C19.6434 29.0016 25.404 25.6247 25.6689 25.6026C25.7572 25.6026 25.8234 26.331 25.8234 27.2359ZM43.4804 26.2647C43.3038 26.3751 42.9066 26.4634 42.5976 26.4634L42.0458 26.4413L42.5976 26.2647C42.9066 26.1765 43.3038 26.0882 43.4804 26.0661C43.7673 26.044 43.7673 26.0661 43.4804 26.2647ZM50.7198 33.46C50.3446 33.8131 43.4583 37.7418 43.2155 37.7418C43.1273 37.7418 43.039 36.8148 43.039 35.6892V33.6586L46.9677 31.4074L50.8743 29.134L50.9405 31.1646C50.9846 32.5992 50.9184 33.2613 50.7198 33.46ZM21.1884 30.6349C21.6519 31.0101 21.6519 31.0542 21.2988 31.4074C20.8574 31.8708 19.2461 31.915 18.6502 31.4736C18.2309 31.1646 18.2309 31.1425 18.6282 30.7011C19.1579 30.1051 20.5042 30.0831 21.1884 30.6349ZM23.241 31.6722C22.3361 32.0695 22.0051 32.5551 22.1154 33.4379L22.2037 34.2104H21.0339C19.5551 34.2104 18.9813 34.696 18.9813 35.9761V36.859H17.9219C16.421 36.859 15.8913 37.3004 15.8913 38.5364C15.8913 39.5296 15.8913 39.5517 15.2292 39.3972C14.4125 39.2206 13.0883 39.6399 12.8234 40.1476C12.7131 40.3462 12.6689 40.9421 12.7351 41.4719C12.8455 42.3106 12.9558 42.4651 13.64 42.752C14.5229 43.1272 15.781 42.9727 16.399 42.443C16.6417 42.2002 16.7742 41.7588 16.7742 41.1408V40.1917L17.5025 40.3241C17.9219 40.3904 18.584 40.28 19.0475 40.0814C19.8641 39.7503 19.9966 39.3972 19.9083 37.9625C19.8862 37.6977 20.1511 37.6315 21.0781 37.6315C22.6451 37.6315 23.241 37.1238 23.1307 35.8657C23.0645 34.9829 23.0645 34.9829 23.7708 35.0491C25.382 35.2478 26.2648 34.6298 26.2648 33.3276V32.4668L27.258 32.842C27.8098 33.0406 28.2292 33.2613 28.2071 33.3496C28.1409 33.4821 24.0356 36.9252 17.1714 42.5754L15.4499 43.9659L10.9253 42.134L6.3786 40.28L7.32766 39.4634L8.27673 38.6467L8.34294 39.5075C8.43123 40.6994 9.02715 41.1629 10.4839 41.1629C12.0509 41.1629 12.6468 40.6552 12.5365 39.3751L12.4703 38.4481L13.1765 38.5584C14.7657 38.8233 15.6706 38.1832 15.6706 36.7927V35.8657L16.73 35.932C18.1426 36.0423 18.7385 35.5568 18.8268 34.2766L18.8709 33.3276H19.82C20.7691 33.3276 21.6078 33.0406 21.8947 32.5771C21.983 32.4447 22.0713 31.9591 22.0713 31.5177V30.7231L22.9541 31.0763L23.859 31.4074L23.241 31.6722ZM17.8777 31.6722C17.8777 32.4447 17.8777 32.4447 16.8625 32.4447H15.8472L16.7742 31.6722C17.2818 31.2529 17.7453 30.8997 17.7894 30.8997C17.8336 30.8997 17.8777 31.2529 17.8777 31.6722ZM19.9745 32.3343C20.3497 32.3343 20.8794 32.2461 21.1884 32.1578L21.7402 31.9812L21.2105 32.4226C20.5042 33.0406 19.1799 33.0406 18.6282 32.4226C18.2088 31.9371 18.2088 31.9371 18.7606 32.1357C19.0696 32.2461 19.6214 32.3343 19.9745 32.3343ZM25.404 32.224C25.6247 32.3564 25.8234 32.5992 25.8234 32.7758C25.8234 33.5483 23.6383 33.8352 22.91 33.1731C22.5348 32.842 22.5348 32.7978 22.8658 32.4006C23.2852 31.9591 24.6978 31.8488 25.404 32.224ZM17.8998 33.1068C18.8268 33.6145 18.1205 34.4311 16.7742 34.4311C15.4499 34.4311 14.7436 33.6366 15.6265 33.1289C16.112 32.8199 17.348 32.8199 17.8998 33.1068ZM34.4533 33.5483C34.983 33.9897 34.983 33.9897 34.5636 34.3208C34.3208 34.4973 33.7249 34.6518 33.2173 34.6518C32.7096 34.6518 32.1137 34.4973 31.8709 34.3208C31.4516 33.9897 31.4516 33.9897 31.9813 33.5483C32.2682 33.3055 32.82 33.1068 33.2173 33.1068C33.6145 33.1068 34.1663 33.3055 34.4533 33.5483ZM14.7878 34.2104V35.0933H13.7504L12.691 35.0712L13.6842 34.2104C14.236 33.7248 14.6995 33.3276 14.7436 33.3276C14.7657 33.3276 14.7878 33.7248 14.7878 34.2104ZM25.3599 34.2545C24.8302 34.696 23.8149 34.7622 23.1528 34.4311C22.4023 34.0118 22.6893 33.8793 24.3005 33.8793C25.8013 33.8793 25.8234 33.8793 25.3599 34.2545ZM36.3735 34.9829C35.3582 35.4023 35.0933 35.7554 35.0933 36.7707C35.0933 37.5211 35.2037 37.808 35.601 38.0508C36.3955 38.5584 37.2342 38.6467 38.1392 38.3377C38.8896 38.0729 38.9779 38.0949 38.9779 38.3819C38.9999 40.0593 39.0441 40.1917 39.8828 40.5228C41.4719 41.207 43.039 40.5007 43.039 39.1323C43.039 38.2715 43.0831 38.2494 44.0984 38.8895L44.893 39.3751L44.1425 39.5296C43.1935 39.7282 42.8183 40.2359 42.8183 41.2953C42.8183 42.3988 43.6128 43.0389 44.915 43.0389C46.1952 43.0389 47.0118 42.3768 47.0118 41.3615V40.589L48.1154 41.207C48.7113 41.5381 49.2189 41.8691 49.2189 41.9354C49.2189 42.0898 41.7368 46.3937 41.4057 46.4379C41.1188 46.46 25.382 37.499 25.382 37.3004C25.382 37.2342 25.7792 36.9693 26.2648 36.7045L27.1477 36.241V36.881C27.1477 38.2494 28.8913 38.9999 30.3921 38.2715C31.1867 37.8742 31.2308 37.808 31.2308 36.7486C31.2308 35.6892 31.2088 35.623 30.3701 35.2257L29.5093 34.8063L30.2597 34.409L31.0101 34.0338L31.1426 34.8284C31.3191 35.8658 31.8488 36.1968 33.2614 36.1968C34.696 36.1968 35.314 35.6892 35.314 34.5415V33.791L36.1307 34.2545L36.9473 34.7401L36.3735 34.9829ZM28.6927 34.3649C28.6927 34.5856 28.4278 34.9167 28.0747 35.1153C27.7436 35.2919 26.9932 35.7333 26.3752 36.0865C25.1392 36.7707 25.3378 36.5058 27.1477 35.005C28.494 33.9014 28.6927 33.8131 28.6927 34.3649ZM18.2529 34.9829C18.0984 35.4023 17.039 35.623 16.2003 35.4023C14.8319 35.0712 15.0967 34.7622 16.7742 34.7622C17.7012 34.7622 18.2971 34.8505 18.2529 34.9829ZM22.4023 35.027C22.7555 35.3802 22.7555 35.4243 22.292 35.7995C21.4533 36.4837 19.4227 36.2189 19.4227 35.4243C19.4227 34.6518 21.7181 34.3428 22.4023 35.027ZM32.7758 35.2257C33.0407 35.2919 33.6366 35.2478 34.078 35.1374C34.9609 34.8725 35.0271 34.9167 34.5195 35.4023C33.8573 36.0644 31.5619 35.7113 31.5619 34.9388C31.5619 34.8725 31.7164 34.8946 31.9151 34.9608C32.1137 35.027 32.4889 35.1595 32.7758 35.2257ZM30.6791 35.9099C30.966 36.1968 30.9439 36.263 30.4804 36.6603C29.8183 37.19 28.6706 37.19 28.0084 36.6603C27.567 36.3072 27.5449 36.1968 27.7877 35.9099C28.3174 35.2698 30.0169 35.2698 30.6791 35.9099ZM38.0729 35.5788C38.3819 35.7113 38.6247 35.9982 38.6247 36.1968C38.6247 37.0576 36.3955 37.3004 35.7555 36.5279C35.0933 35.7333 36.837 35.005 38.0729 35.5788ZM14.8098 35.7554C15.7368 36.263 15.0305 37.0797 13.6842 37.0797C12.4261 37.0797 11.764 36.4396 12.4041 35.7995C12.7351 35.4685 14.2139 35.4464 14.8098 35.7554ZM11.6536 37.6535C11.5874 37.7197 11.0577 37.7418 10.4839 37.6977L9.46858 37.6315L10.4176 36.9031L11.3667 36.1747L11.5653 36.859C11.6757 37.2121 11.7198 37.5873 11.6536 37.6535ZM40.2359 36.6162C40.9864 36.9914 41.0084 37.3004 40.3021 37.3004C39.9931 37.3004 39.6841 37.3887 39.6179 37.5211C39.3972 37.8963 39.0662 37.7639 39.0662 37.3225C39.0662 36.7707 39.3089 36.1527 39.4855 36.241C39.5517 36.2851 39.8828 36.4617 40.2359 36.6162ZM22.4244 36.8148C21.9168 37.3225 20.4821 37.3887 19.9083 36.9472C19.4006 36.5279 19.4227 36.5279 21.056 36.5279C22.4465 36.5279 22.6672 36.572 22.4244 36.8148ZM29.2444 37.5211C29.6859 37.5211 30.2376 37.4107 30.4804 37.3004C30.9439 37.0355 31.0543 37.3445 30.6349 37.6756C29.8404 38.2936 28.0084 38.117 27.7215 37.3887C27.6332 37.1459 27.6774 37.1238 28.0305 37.3004C28.2512 37.4107 28.803 37.5211 29.2444 37.5211ZM37.5874 37.4328C38.6247 37.3225 38.6689 37.3445 38.3599 37.6756C37.9184 38.0949 36.3514 38.1391 35.8658 37.7418C35.3582 37.3225 35.4685 37.0355 36.0203 37.3225C36.3072 37.477 36.9252 37.5211 37.5874 37.4328ZM14.7657 37.786C14.236 38.2274 13.5518 38.2936 12.7131 37.9625C11.7419 37.6094 12.073 37.4107 13.7063 37.4107C15.2071 37.4107 15.2292 37.4107 14.7657 37.786ZM19.2903 37.808C19.6214 38.3377 18.9592 38.8454 17.9219 38.8454C16.5976 38.8454 15.9575 38.2053 16.5976 37.5652C17.039 37.1238 18.9813 37.3225 19.2903 37.808ZM24.4991 39.3751V41.4498L20.1952 45.0033C17.8336 46.9676 15.8472 48.5567 15.781 48.5567C15.7147 48.5567 15.6706 47.6739 15.6706 46.5703C15.6706 44.628 15.6706 44.5839 16.399 43.9438C17.2377 43.1713 24.3667 37.3004 24.455 37.3004C24.477 37.3004 24.4991 38.2274 24.4991 39.3751ZM42.3768 38.0729C42.5313 38.2494 42.5976 38.5364 42.5313 38.7129C42.3548 39.1323 40.9201 39.3972 40.1918 39.1544C39.5517 38.9337 39.3089 38.2274 39.7724 37.9404C40.258 37.6094 42.0678 37.7197 42.3768 38.0729ZM33.1511 42.5092L41.0526 47.078V49.1306C41.0526 50.2783 40.9864 51.2053 40.9201 51.2053C40.8319 51.2053 37.2122 49.1527 32.8641 46.6365L24.9405 42.0678V40.0152C24.9405 38.8895 25.0068 37.9625 25.095 37.9625C25.1612 37.9625 28.803 40.0151 33.1511 42.5092ZM11.8302 38.5143C12.2496 38.8454 12.2496 38.8454 11.7198 39.2868C11.4329 39.5296 10.8811 39.7282 10.4839 39.7282C10.0866 39.7282 9.53479 39.5296 9.24786 39.2868C8.71815 38.8454 8.71815 38.8454 9.13751 38.5143C9.38029 38.3377 9.97621 38.1832 10.4839 38.1832C10.9915 38.1832 11.5874 38.3377 11.8302 38.5143ZM19.4227 39.3089C19.4227 39.3972 19.1358 39.5737 18.7827 39.7282C18.0764 40.0151 16.9507 39.8607 16.5976 39.4413C16.421 39.2427 16.7521 39.1764 17.8998 39.1764C18.7385 39.1764 19.4227 39.2427 19.4227 39.3089ZM42.3327 39.8827C41.9796 40.3021 40.8539 40.4566 40.1476 40.1696C39.7945 40.0152 39.5076 39.8386 39.5076 39.7503C39.5076 39.6841 40.1918 39.6179 41.0305 39.6179C42.2003 39.6179 42.5093 39.6841 42.3327 39.8827ZM16.112 40.3021C16.399 40.6111 16.399 40.6773 15.9134 41.0746C15.0526 41.7809 13.2428 41.4719 13.2428 40.6331C13.2428 39.7724 15.3616 39.5296 16.112 40.3021ZM11.7861 40.3904C11.5874 40.589 11.0577 40.7214 10.4839 40.7214C9.91 40.7214 9.38029 40.589 9.18165 40.3904C8.87265 40.1034 9.02715 40.0593 10.4839 40.0593C11.9406 40.0593 12.0951 40.1034 11.7861 40.3904ZM46.2393 40.3021C46.5704 40.6331 46.5704 40.6994 46.2172 41.0746C45.511 41.8471 43.2597 41.4939 43.2597 40.6111C43.2597 39.9489 45.6213 39.7062 46.2393 40.3021ZM10.9915 42.7299L15.2292 44.4515V46.6365C15.2292 48.2919 15.163 48.7995 14.9643 48.7112C14.8098 48.6671 12.7572 47.8284 10.4397 46.8793L6.17996 45.1578V42.9727C6.17996 41.3174 6.24617 40.8097 6.46688 40.898C6.59931 40.9421 8.65194 41.7809 10.9915 42.7299ZM16.1341 42.0236C15.7589 42.4651 14.6995 42.6196 13.9049 42.3547C12.8896 41.9795 13.1103 41.7146 14.3243 41.8691C14.9202 41.9353 15.5823 41.8912 15.803 41.7588C16.3107 41.4719 16.4872 41.6043 16.1341 42.0236ZM46.1069 42.2002C45.8641 42.4209 45.3123 42.5975 44.915 42.5975C44.5178 42.5975 43.966 42.4209 43.7232 42.2002C43.2597 41.825 43.2818 41.825 44.915 41.825C46.5483 41.825 46.5704 41.825 46.1069 42.2002ZM49.6604 44.6722V46.7469L45.7758 48.9761C43.6349 50.19 41.8471 51.2053 41.803 51.2053C41.7368 51.2053 41.7368 50.2562 41.7588 49.0864L41.8251 46.9676L45.5772 44.7825C47.6519 43.5907 49.3955 42.5975 49.5059 42.5975C49.5941 42.5975 49.6604 43.5245 49.6604 44.6722Z" fill="#410EB5"/>
</svg>
