<svg width="49" height="44" viewBox="0 0 49 44" fill="none" xmlns="http://www.w3.org/2000/svg">
<path d="M24.3083 1.40771L2.43835 13.0214L5.83196 13.2476L24.3083 3.44388L42.7845 13.323L46.329 13.0214L24.3083 1.40771Z" fill="#A4FCF5"/>
<path d="M45.9519 14.9821H2.81543L1.75964 13.3984L5.07783 13.7755L24.4591 3.51929L42.7091 13.3984H46.5552L45.9519 14.9821Z" fill="#CDAEFB"/>
<path d="M24.3083 0.050293L1.08093 12.946H4.02206L24.3083 2.08646L46.0273 13.0968L47.3848 12.7198L24.3083 0.050293Z" fill="#A4FCF5"/>
<path d="M4.02204 16.943L2.81543 15.1331H9.90429L9.75347 15.7364L9.15016 15.9626L8.84851 16.943H4.02204Z" fill="#A4FCF5"/>
<path d="M13.0716 16.943L11.865 15.1331H18.9539L18.803 15.7364L18.1997 15.9626L17.8981 16.943H13.0716Z" fill="#A4FCF5"/>
<path d="M22.1212 16.943L20.9146 15.1331H28.0035L27.8526 15.7364L27.2493 15.9626L26.9477 16.943H22.1212Z" fill="#A4FCF5"/>
<path d="M31.1708 16.943L29.9642 15.1331H37.0531L36.9023 15.7364L36.299 15.9626L35.9973 16.943H31.1708Z" fill="#A4FCF5"/>
<path d="M40.2205 16.943L39.0139 15.1331H46.1027L45.9519 15.7364L45.3486 15.9626L45.0469 16.943H40.2205Z" fill="#A4FCF5"/>
<path d="M4.02204 38.5111L2.81543 40.321H9.90429L9.75347 39.7177L9.15016 39.4915L8.84851 38.5111H4.02204Z" fill="#A4FCF5"/>
<path d="M13.0716 38.5111L11.865 40.321H18.9539L18.803 39.7177L18.1997 39.4915L17.8981 38.5111H13.0716Z" fill="#A4FCF5"/>
<path d="M22.1212 38.5111L20.9146 40.321H28.0035L27.8526 39.7177L27.2493 39.4915L26.9477 38.5111H22.1212Z" fill="#A4FCF5"/>
<path d="M31.1708 38.5111L29.9642 40.321H37.0531L36.9023 39.7177L36.299 39.4915L35.9973 38.5111H31.1708Z" fill="#A4FCF5"/>
<path d="M40.2205 38.5111L39.0139 40.321H46.1027L45.9519 39.7177L45.3486 39.4915L45.0469 38.5111H40.2205Z" fill="#A4FCF5"/>
<rect x="1.75964" y="40.321" width="45.2481" height="1.35744" fill="#CDAEFB"/>
<rect x="0.55304" y="41.8293" width="47.6613" height="1.35744" fill="#CDAEFB"/>
<rect x="4.17291" y="16.9429" width="4.37398" height="21.5682" fill="#CDAEFB"/>
<rect x="13.0717" y="16.9429" width="4.37398" height="21.5682" fill="#CDAEFB"/>
<rect x="22.1213" y="16.9429" width="4.37398" height="21.5682" fill="#CDAEFB"/>
<rect x="31.1709" y="16.9429" width="4.37398" height="21.5682" fill="#CDAEFB"/>
<rect x="40.2205" y="16.9429" width="4.37398" height="21.5682" fill="#CDAEFB"/>
<path d="M12.1667 6.45548C5.65098 9.99489 0.221213 12.9913 0.100551 13.0919C0 13.1924 0.140772 13.2729 0.462536 13.2729C0.7843 13.2729 1.28706 13.4136 1.60882 13.5745C2.07136 13.8158 2.21213 14.0169 2.21213 14.4795C2.21213 14.8213 2.31268 15.0828 2.41323 15.0828C2.53389 15.0828 2.61433 15.304 2.61433 15.5855C2.61433 15.9475 2.71488 16.0883 3.01654 16.0883C3.27797 16.0883 3.41874 16.2291 3.41874 16.4704C3.41874 16.6916 3.49918 16.9329 3.61985 16.9933C3.90139 17.1742 3.90139 38.0085 3.61985 38.0085C3.51929 38.0085 3.41874 38.2297 3.41874 38.5112C3.41874 38.8732 3.31819 39.014 3.01654 39.014C2.71488 39.014 2.61433 39.1547 2.61433 39.5167C2.61433 39.9189 2.51378 40.0195 2.11158 40.0195C1.66915 40.0195 1.60882 40.0999 1.60882 40.8239V41.6283H0.80441H0V42.5333V43.4382H24.3334H48.6668V42.5333V41.6283H47.8624H47.058V40.8239C47.058 40.0999 47.0178 40.0195 46.5552 40.0195C46.153 40.0195 46.0525 39.9189 46.0525 39.5167C46.0525 39.1547 45.9519 39.014 45.6503 39.014C45.3486 39.014 45.2481 38.8732 45.2481 38.5112C45.2481 38.2297 45.1676 38.0085 45.047 38.0085C44.7654 38.0085 44.7654 17.1742 45.047 16.9933C45.1676 16.9329 45.2481 16.6916 45.2481 16.4704C45.2481 16.2291 45.3888 16.0883 45.6503 16.0883C45.9519 16.0883 46.0525 15.9475 46.0525 15.5855C46.0525 15.304 46.153 15.0828 46.2536 15.0828C46.3742 15.0828 46.4547 14.8213 46.4547 14.4795C46.4547 14.0169 46.5955 13.8158 47.058 13.5745C47.3798 13.4136 47.8825 13.2729 48.2043 13.2729C48.526 13.2729 48.6668 13.1924 48.5663 13.0919C48.1842 12.7299 24.5948 9.15527e-05 24.3133 9.15527e-05C24.1524 9.15527e-05 18.7025 2.91608 12.1667 6.45548ZM35.9772 6.63647C43.9007 10.9401 47.1384 12.7902 46.7966 12.8304C46.4949 12.8707 42.7142 10.92 35.3739 6.95824C29.361 3.68027 24.3937 1.00561 24.3334 1.00561C24.2731 1.00561 19.3058 3.68027 13.2929 6.95824C5.97274 10.92 2.17191 12.8707 1.87025 12.8304C1.52838 12.7902 4.76613 10.92 12.7097 6.59626C18.9439 3.19762 24.1725 0.44252 24.3535 0.462627C24.5345 0.482738 29.7632 3.25795 35.9772 6.63647ZM34.8108 7.0789L45.2682 12.7701L43.8806 12.8304L42.4729 12.8908L33.4031 7.96375L24.3334 3.03674L15.2637 7.96375L6.19396 12.8908L4.78624 12.8304L3.39863 12.7701L13.8157 7.09901C19.5472 3.98192 24.253 1.42792 24.2932 1.42792C24.3133 1.40781 29.0593 3.96181 34.8108 7.0789ZM33.021 8.2453L41.3467 12.7701L32.84 12.8304C28.1544 12.8505 20.5125 12.8505 15.8268 12.8304L7.32013 12.7701L15.6659 8.20507C20.2711 5.6913 24.1725 3.66016 24.3535 3.68027C24.5345 3.70038 28.4359 5.75163 33.021 8.2453ZM3.90139 14.2583C3.96172 14.3588 3.70029 14.4795 3.31819 14.5197C2.83555 14.58 2.61433 14.5197 2.61433 14.3387C2.61433 14.037 3.74051 13.9767 3.90139 14.2583ZM6.23418 14.2784C6.23418 14.3789 5.91241 14.4795 5.53032 14.4795C5.14822 14.4795 4.82646 14.3789 4.82646 14.2784C4.82646 14.1577 5.14822 14.0773 5.53032 14.0773C5.91241 14.0773 6.23418 14.1577 6.23418 14.2784ZM8.64741 14.2784C8.64741 14.3789 8.28542 14.4795 7.82289 14.4795C7.34024 14.4795 7.0587 14.399 7.13914 14.2784C7.19947 14.1577 7.58156 14.0773 7.96366 14.0773C8.34575 14.0773 8.64741 14.1577 8.64741 14.2784ZM11.0204 14.4191C11.0606 14.58 10.8998 14.6806 10.5981 14.6806C9.95457 14.6806 9.45182 14.4996 9.45182 14.2381C9.45182 13.9566 10.9199 14.1376 11.0204 14.4191ZM13.2728 14.2784C13.2728 14.3789 12.951 14.4795 12.5689 14.4795C12.1868 14.4795 11.865 14.3789 11.865 14.2784C11.865 14.1577 12.1868 14.0773 12.5689 14.0773C12.951 14.0773 13.2728 14.1577 13.2728 14.2784ZM15.686 14.2784C15.686 14.3789 15.324 14.4795 14.8615 14.4795C14.3788 14.4795 14.0973 14.399 14.1777 14.2784C14.2381 14.1577 14.6202 14.0773 15.0022 14.0773C15.3843 14.0773 15.686 14.1577 15.686 14.2784ZM17.9987 14.2784C18.0791 14.399 17.7976 14.4795 17.3149 14.4795C16.8524 14.4795 16.4904 14.3789 16.4904 14.2784C16.4904 14.1577 16.7921 14.0773 17.1742 14.0773C17.5562 14.0773 17.9383 14.1577 17.9987 14.2784ZM20.3918 14.3789C20.4722 14.6202 20.3315 14.6806 19.708 14.6806C19.1248 14.6806 18.9036 14.6001 18.9036 14.3789C18.9036 14.1778 19.1047 14.0773 19.5874 14.0773C20.0097 14.0773 20.3114 14.1979 20.3918 14.3789ZM22.7246 14.2784C22.7246 14.3789 22.4028 14.4795 22.0207 14.4795C21.6386 14.4795 21.3169 14.3789 21.3169 14.2784C21.3169 14.1577 21.6386 14.0773 22.0207 14.0773C22.4028 14.0773 22.7246 14.1577 22.7246 14.2784ZM25.1378 14.2784C25.1378 14.3789 24.7758 14.4795 24.3334 14.4795C23.891 14.4795 23.529 14.3789 23.529 14.2784C23.529 14.1577 23.891 14.0773 24.3334 14.0773C24.7758 14.0773 25.1378 14.1577 25.1378 14.2784ZM27.3499 14.2784C27.3499 14.3789 27.0282 14.4795 26.6461 14.4795C26.264 14.4795 25.9422 14.3789 25.9422 14.2784C25.9422 14.1577 26.264 14.0773 26.6461 14.0773C27.0282 14.0773 27.3499 14.1577 27.3499 14.2784ZM29.7632 14.3789C29.7632 14.6001 29.542 14.6806 28.9588 14.6806C28.3353 14.6806 28.1946 14.6202 28.275 14.3789C28.3555 14.1979 28.6571 14.0773 29.0794 14.0773C29.5621 14.0773 29.7632 14.1778 29.7632 14.3789ZM32.1764 14.2784C32.1764 14.3789 31.8144 14.4795 31.3519 14.4795C30.8692 14.4795 30.5877 14.399 30.6681 14.2784C30.7285 14.1577 31.1106 14.0773 31.4927 14.0773C31.8747 14.0773 32.1764 14.1577 32.1764 14.2784ZM34.4891 14.2784C34.5695 14.399 34.288 14.4795 33.8053 14.4795C33.3428 14.4795 32.9808 14.3789 32.9808 14.2784C32.9808 14.1577 33.2825 14.0773 33.6646 14.0773C34.0467 14.0773 34.4287 14.1577 34.4891 14.2784ZM36.8018 14.2784C36.8018 14.3789 36.48 14.4795 36.0979 14.4795C35.7158 14.4795 35.394 14.3789 35.394 14.2784C35.394 14.1577 35.7158 14.0773 36.0979 14.0773C36.48 14.0773 36.8018 14.1577 36.8018 14.2784ZM39.215 14.2583C39.215 14.4795 38.7122 14.6806 38.0888 14.6806C37.6263 14.6806 37.4654 14.4795 37.7469 14.218C37.948 14.0169 39.215 14.0572 39.215 14.2583ZM41.5277 14.2784C41.6081 14.399 41.3266 14.4795 40.8439 14.4795C40.3814 14.4795 40.0194 14.3789 40.0194 14.2784C40.0194 14.1577 40.3211 14.0773 40.7031 14.0773C41.0852 14.0773 41.4673 14.1577 41.5277 14.2784ZM43.8403 14.2784C43.8403 14.3789 43.5186 14.4795 43.1365 14.4795C42.7544 14.4795 42.4326 14.3789 42.4326 14.2784C42.4326 14.1577 42.7544 14.0773 43.1365 14.0773C43.5186 14.0773 43.8403 14.1577 43.8403 14.2784ZM46.0525 14.3387C46.0525 14.5197 45.8313 14.58 45.3486 14.5197C44.5241 14.4191 44.6045 14.0773 45.4693 14.0773C45.8112 14.0773 46.0525 14.1778 46.0525 14.3387ZM9.65292 15.3844C9.65292 15.6459 9.15016 15.6861 6.33473 15.6861C3.51929 15.6861 3.01654 15.6459 3.01654 15.3844C3.01654 15.123 3.51929 15.0828 6.33473 15.0828C9.15016 15.0828 9.65292 15.123 9.65292 15.3844ZM11.6639 15.5855C11.6639 15.9475 11.7645 16.0883 12.0662 16.0883C12.3678 16.0883 12.4684 16.2291 12.4684 16.591C12.4684 16.8726 12.5689 17.0938 12.6695 17.0938C12.8102 17.0938 12.8706 20.7136 12.8706 27.5511C12.8706 34.3886 12.8102 38.0085 12.6695 38.0085C12.5689 38.0085 12.4684 38.2297 12.4684 38.5112C12.4684 38.8732 12.3678 39.014 12.0662 39.014C11.7645 39.014 11.6639 39.1547 11.6639 39.5167C11.6639 39.9592 11.5835 40.0195 10.8595 40.0195C10.1356 40.0195 10.0551 39.9592 10.0551 39.5167C10.0551 39.1547 9.95457 39.014 9.65292 39.014C9.35127 39.014 9.25072 38.8732 9.25072 38.5112C9.25072 38.2297 9.17027 38.0085 9.04961 38.0085C8.90884 38.0085 8.84851 34.3886 8.84851 27.5511C8.84851 20.7136 8.90884 17.0938 9.04961 17.0938C9.17027 17.0938 9.25072 16.8726 9.25072 16.591C9.25072 16.2291 9.35127 16.0883 9.65292 16.0883C9.95457 16.0883 10.0551 15.9475 10.0551 15.5855C10.0551 15.123 10.1356 15.0828 10.8595 15.0828C11.5835 15.0828 11.6639 15.123 11.6639 15.5855ZM18.7025 15.3844C18.7025 15.6459 18.1998 15.6861 15.3843 15.6861C12.5689 15.6861 12.0662 15.6459 12.0662 15.3844C12.0662 15.123 12.5689 15.0828 15.3843 15.0828C18.1998 15.0828 18.7025 15.123 18.7025 15.3844ZM20.7136 15.5654C20.7136 15.8671 20.8543 16.0883 21.1158 16.1486C21.3571 16.209 21.518 16.4302 21.518 16.6715C21.518 16.9128 21.6185 17.0938 21.7191 17.0938C21.8598 17.0938 21.9202 20.7136 21.9202 27.5511C21.9202 34.3886 21.8598 38.0085 21.7191 38.0085C21.6185 38.0085 21.518 38.1895 21.518 38.4308C21.518 38.6721 21.3571 38.8933 21.1158 38.9536C20.8543 39.014 20.7136 39.2352 20.7136 39.5368C20.7136 39.9592 20.613 40.0195 19.9091 40.0195C19.1852 40.0195 19.1047 39.9592 19.1047 39.5167C19.1047 39.1547 19.0042 39.014 18.7025 39.014C18.4411 39.014 18.3003 38.8732 18.3003 38.6118C18.3003 38.3906 18.1596 38.1492 17.9987 38.0889C17.7372 37.9884 17.697 36.6209 17.697 27.5511C17.697 18.4814 17.7372 17.1139 17.9987 17.0134C18.1596 16.953 18.3003 16.7117 18.3003 16.4905C18.3003 16.2291 18.4411 16.0883 18.7025 16.0883C19.0042 16.0883 19.1047 15.9475 19.1047 15.5855C19.1047 15.123 19.1852 15.0828 19.9091 15.0828C20.613 15.0828 20.7136 15.1431 20.7136 15.5654ZM27.7521 15.3844C27.7521 15.6459 27.2293 15.6861 24.3334 15.6861C21.4375 15.6861 20.9147 15.6459 20.9147 15.3844C20.9147 15.123 21.4375 15.0828 24.3334 15.0828C27.2293 15.0828 27.7521 15.123 27.7521 15.3844ZM29.5621 15.5855C29.5621 15.9475 29.6626 16.0883 29.9643 16.0883C30.2257 16.0883 30.3665 16.2291 30.3665 16.4905C30.3665 16.7117 30.5073 16.953 30.6681 17.0134C30.9296 17.1139 30.9698 18.4814 30.9698 27.5511C30.9698 36.6209 30.9296 37.9884 30.6681 38.0889C30.5073 38.1492 30.3665 38.3906 30.3665 38.6118C30.3665 38.8732 30.2257 39.014 29.9643 39.014C29.6626 39.014 29.5621 39.1547 29.5621 39.5167C29.5621 39.9592 29.4816 40.0195 28.7577 40.0195C28.0538 40.0195 27.9532 39.9592 27.9532 39.5368C27.9532 39.2352 27.8125 39.014 27.551 38.9536C27.3097 38.8933 27.1488 38.6721 27.1488 38.4308C27.1488 38.1895 27.0684 38.0085 26.9477 38.0085C26.807 38.0085 26.7466 34.3886 26.7466 27.5511C26.7466 20.7136 26.807 17.0938 26.9477 17.0938C27.0684 17.0938 27.1488 16.9128 27.1488 16.6715C27.1488 16.4302 27.3097 16.209 27.551 16.1486C27.8125 16.0883 27.9532 15.8671 27.9532 15.5654C27.9532 15.1431 28.0538 15.0828 28.7577 15.0828C29.4816 15.0828 29.5621 15.123 29.5621 15.5855ZM36.6007 15.3844C36.6007 15.6459 36.0979 15.6861 33.2825 15.6861C30.467 15.6861 29.9643 15.6459 29.9643 15.3844C29.9643 15.123 30.467 15.0828 33.2825 15.0828C36.0979 15.0828 36.6007 15.123 36.6007 15.3844ZM38.6117 15.5855C38.6117 15.9475 38.7122 16.0883 39.0139 16.0883C39.3155 16.0883 39.4161 16.2291 39.4161 16.591C39.4161 16.8726 39.5166 17.0938 39.6172 17.0938C39.758 17.0938 39.8183 20.7136 39.8183 27.5511C39.8183 34.3886 39.758 38.0085 39.6172 38.0085C39.5166 38.0085 39.4161 38.2297 39.4161 38.5112C39.4161 38.8732 39.3155 39.014 39.0139 39.014C38.7122 39.014 38.6117 39.1547 38.6117 39.5167C38.6117 39.9592 38.5312 40.0195 37.8073 40.0195C37.0833 40.0195 37.0029 39.9592 37.0029 39.5167C37.0029 39.1547 36.9023 39.014 36.6007 39.014C36.299 39.014 36.1985 38.8732 36.1985 38.5112C36.1985 38.2297 36.118 38.0085 35.9973 38.0085C35.8566 38.0085 35.7962 34.3886 35.7962 27.5511C35.7962 20.7136 35.8566 17.0938 35.9973 17.0938C36.118 17.0938 36.1985 16.8726 36.1985 16.591C36.1985 16.2291 36.299 16.0883 36.6007 16.0883C36.9023 16.0883 37.0029 15.9475 37.0029 15.5855C37.0029 15.123 37.0833 15.0828 37.8073 15.0828C38.5312 15.0828 38.6117 15.123 38.6117 15.5855ZM45.6503 15.3844C45.6503 15.6459 45.1475 15.6861 42.3321 15.6861C39.5166 15.6861 39.0139 15.6459 39.0139 15.3844C39.0139 15.123 39.5166 15.0828 42.3321 15.0828C45.1475 15.0828 45.6503 15.123 45.6503 15.3844ZM8.84851 16.3899C8.84851 16.6514 8.4262 16.6916 6.33473 16.6916C4.04216 16.6916 3.57962 16.591 3.96172 16.2291C4.02205 16.1486 5.16833 16.0883 6.4755 16.0883C8.44631 16.0883 8.84851 16.1486 8.84851 16.3899ZM17.8579 16.4302C17.9182 16.6313 17.335 16.6916 15.4045 16.6916C13.2728 16.6916 12.8706 16.6514 12.8706 16.3899C12.8706 16.1285 13.2325 16.0883 15.324 16.1285C17.0535 16.1687 17.7976 16.2693 17.8579 16.4302ZM26.7466 16.3899C26.7466 16.6112 22.4632 16.7922 21.9604 16.591C21.8196 16.5508 21.7593 16.3899 21.8196 16.2894C22.0006 16.0079 26.7466 16.1084 26.7466 16.3899ZM35.7962 16.3899C35.7962 16.6514 35.3739 16.6916 33.2825 16.6916C30.9899 16.6916 30.5274 16.591 30.9095 16.2291C30.9698 16.1486 32.1161 16.0883 33.4232 16.0883C35.394 16.0883 35.7962 16.1486 35.7962 16.3899ZM44.8056 16.4302C44.866 16.6313 44.2828 16.6916 42.3522 16.6916C40.2205 16.6916 39.8183 16.6514 39.8183 16.3899C39.8183 16.1285 40.1803 16.0883 42.2717 16.1285C44.0012 16.1687 44.7453 16.2693 44.8056 16.4302ZM8.44631 27.5511V38.0085H6.33473H4.22315V27.5511V17.0938H6.33473H8.44631V27.5511ZM17.2948 27.5511V38.0085H15.2838H13.2728V27.5511V17.0938H15.2838H17.2948V27.5511ZM26.3444 27.5511V38.0085H24.3334H22.3224V27.5511V17.0938H24.3334H26.3444V27.5511ZM35.394 27.5511V38.0085H33.383H31.372V27.5511V17.0938H33.383H35.394V27.5511ZM44.4437 27.5511V38.0085H42.3321H40.2205V27.5511V17.0938H42.3321H44.4437V27.5511ZM8.84851 38.7123C8.84851 38.9738 8.48653 39.014 6.39506 38.9738C4.66558 38.9335 3.9215 38.833 3.86117 38.652C3.80084 38.471 4.38403 38.4107 6.31462 38.4107C8.44631 38.4107 8.84851 38.4509 8.84851 38.7123ZM17.8579 38.652C17.7976 38.833 17.0535 38.9335 15.324 38.9738C13.2325 39.014 12.8706 38.9738 12.8706 38.7123C12.8706 38.4509 13.2728 38.4107 15.4045 38.4107C17.335 38.4107 17.9182 38.471 17.8579 38.652ZM26.9075 38.652C26.8271 38.8531 26.1433 38.9134 24.3334 38.9134C22.5235 38.9134 21.8397 38.8531 21.7794 38.652C21.699 38.471 22.3023 38.4107 24.3334 38.4107C26.3645 38.4107 26.9678 38.471 26.9075 38.652ZM35.7962 38.7123C35.7962 38.9738 35.4343 39.014 33.3428 38.9738C31.6133 38.9335 30.8692 38.833 30.8089 38.652C30.7486 38.471 31.3318 38.4107 33.2624 38.4107C35.394 38.4107 35.7962 38.4509 35.7962 38.7123ZM44.8056 38.652C44.7453 38.833 44.0012 38.9335 42.2717 38.9738C40.1803 39.014 39.8183 38.9738 39.8183 38.7123C39.8183 38.4509 40.2205 38.4107 42.3522 38.4107C44.2828 38.4107 44.866 38.471 44.8056 38.652ZM9.65292 39.7178C9.65292 39.9793 9.15016 40.0195 6.33473 40.0195C3.51929 40.0195 3.01654 39.9793 3.01654 39.7178C3.01654 39.4564 3.51929 39.4162 6.33473 39.4162C9.15016 39.4162 9.65292 39.4564 9.65292 39.7178ZM18.7025 39.7178C18.7025 39.9793 18.1998 40.0195 15.3843 40.0195C12.5689 40.0195 12.0662 39.9793 12.0662 39.7178C12.0662 39.4564 12.5689 39.4162 15.3843 39.4162C18.1998 39.4162 18.7025 39.4564 18.7025 39.7178ZM27.7521 39.7178C27.7521 39.9793 27.2293 40.0195 24.3334 40.0195C21.4375 40.0195 20.9147 39.9793 20.9147 39.7178C20.9147 39.4564 21.4375 39.4162 24.3334 39.4162C27.2293 39.4162 27.7521 39.4564 27.7521 39.7178ZM36.6007 39.7178C36.6007 39.9793 36.0979 40.0195 33.2825 40.0195C30.467 40.0195 29.9643 39.9793 29.9643 39.7178C29.9643 39.4564 30.467 39.4162 33.2825 39.4162C36.0979 39.4162 36.6007 39.4564 36.6007 39.7178ZM45.6503 39.7178C45.6503 39.9793 45.1475 40.0195 42.3321 40.0195C39.5166 40.0195 39.0139 39.9793 39.0139 39.7178C39.0139 39.4564 39.5166 39.4162 42.3321 39.4162C45.1475 39.4162 45.6503 39.4564 45.6503 39.7178ZM46.6558 40.9647V41.4272H24.3334H2.01103V40.9647V40.5222H24.3334H46.6558V40.9647ZM48.2646 42.5333V43.036H24.3334H0.402205V42.5333V42.0305H24.3334H48.2646V42.5333Z" fill="#410EB5"/>
<path d="M4.76612 18.2401C4.5248 18.4613 4.60524 37.0029 4.82645 37.0029C4.96722 37.0029 5.02756 33.725 5.02756 27.5511C5.02756 22.3426 5.00745 18.0993 4.96722 18.0993C4.927 18.0993 4.82645 18.1596 4.76612 18.2401Z" fill="#410EB5"/>
<path d="M5.77162 18.2401C5.53029 18.4613 5.61073 37.0029 5.83195 37.0029C5.97272 37.0029 6.03305 33.725 6.03305 27.5511C6.03305 22.3426 6.01294 18.0993 5.97272 18.0993C5.9325 18.0993 5.83195 18.1596 5.77162 18.2401Z" fill="#410EB5"/>
<path d="M6.63635 27.531C6.63635 33.7048 6.69668 37.0029 6.83746 37.0029C6.97823 37.0029 7.03856 33.7652 7.03856 27.6718C7.03856 21.6588 6.95812 18.2803 6.83746 18.1998C6.69668 18.1194 6.63635 21.2767 6.63635 27.531Z" fill="#410EB5"/>
<path d="M7.64191 27.531C7.64191 33.7048 7.70224 37.0029 7.84301 37.0029C7.98378 37.0029 8.04411 33.7652 8.04411 27.6718C8.04411 21.6588 7.96367 18.2803 7.84301 18.1998C7.70224 18.1194 7.64191 21.2767 7.64191 27.531Z" fill="#410EB5"/>
<path d="M13.8157 18.2401C13.5744 18.4613 13.6549 37.0029 13.8761 37.0029C14.0168 37.0029 14.0772 33.725 14.0772 27.5511C14.0772 22.3426 14.0571 18.0993 14.0168 18.0993C13.9766 18.0993 13.8761 18.1596 13.8157 18.2401Z" fill="#410EB5"/>
<path d="M14.6805 27.531C14.6805 33.7048 14.7408 37.0029 14.8816 37.0029C15.0224 37.0029 15.0827 33.7652 15.0827 27.6718C15.0827 21.6588 15.0022 18.2803 14.8816 18.1998C14.7408 18.1194 14.6805 21.2767 14.6805 27.531Z" fill="#410EB5"/>
<path d="M15.686 27.531C15.686 33.7048 15.7463 37.0029 15.8871 37.0029C16.0278 37.0029 16.0882 33.7652 16.0882 27.6718C16.0882 21.6588 16.0077 18.2803 15.8871 18.1998C15.7463 18.1194 15.686 21.2767 15.686 27.531Z" fill="#410EB5"/>
<path d="M16.5909 18.3205C16.3898 18.8635 16.5708 37.1035 16.792 37.1035C17.0736 37.1035 17.1741 18.5015 16.8926 18.22C16.7719 18.0993 16.6714 18.1396 16.5909 18.3205Z" fill="#410EB5"/>
<path d="M22.7246 27.531C22.7246 33.7048 22.7849 37.0029 22.9257 37.0029C23.0665 37.0029 23.1268 33.7652 23.1268 27.6718C23.1268 21.6588 23.0464 18.2803 22.9257 18.1998C22.7849 18.1194 22.7246 21.2767 22.7246 27.531Z" fill="#410EB5"/>
<path d="M23.6296 18.3205C23.4285 18.8635 23.6094 37.1035 23.8307 37.1035C24.1122 37.1035 24.2128 18.5015 23.9312 18.22C23.8105 18.0993 23.71 18.1396 23.6296 18.3205Z" fill="#410EB5"/>
<path d="M24.635 18.3205C24.4339 18.8635 24.6149 37.1035 24.8362 37.1035C25.1177 37.1035 25.2182 18.5015 24.9367 18.22C24.816 18.0993 24.7155 18.1396 24.635 18.3205Z" fill="#410EB5"/>
<path d="M25.6808 18.2401C25.4395 18.4613 25.5199 37.0029 25.7411 37.0029C25.8819 37.0029 25.9422 33.725 25.9422 27.5511C25.9422 22.3426 25.9221 18.0993 25.8819 18.0993C25.8417 18.0993 25.7411 18.1596 25.6808 18.2401Z" fill="#410EB5"/>
<path d="M31.6736 18.3205C31.4725 18.8635 31.6535 37.1035 31.8747 37.1035C32.1563 37.1035 32.2568 18.5015 31.9753 18.22C31.8546 18.0993 31.7541 18.1396 31.6736 18.3205Z" fill="#410EB5"/>
<path d="M32.7194 18.2401C32.478 18.4613 32.5585 37.0029 32.7797 37.0029C32.9205 37.0029 32.9808 33.725 32.9808 27.5511C32.9808 22.3426 32.9607 18.0993 32.9205 18.0993C32.8803 18.0993 32.7797 18.1596 32.7194 18.2401Z" fill="#410EB5"/>
<path d="M33.7249 18.2401C33.4835 18.4613 33.564 37.0029 33.7852 37.0029C33.926 37.0029 33.9863 33.725 33.9863 27.5511C33.9863 22.3426 33.9662 18.0993 33.926 18.0993C33.8857 18.0993 33.7852 18.1596 33.7249 18.2401Z" fill="#410EB5"/>
<path d="M34.5896 27.531C34.5896 33.7048 34.6499 37.0029 34.7907 37.0029C34.9315 37.0029 34.9918 33.7652 34.9918 27.6718C34.9918 21.6588 34.9114 18.2803 34.7907 18.1998C34.6499 18.1194 34.5896 21.2767 34.5896 27.531Z" fill="#410EB5"/>
<path d="M40.7635 18.2401C40.5222 18.4613 40.6026 37.0029 40.8238 37.0029C40.9646 37.0029 41.0249 33.725 41.0249 27.5511C41.0249 22.3426 41.0048 18.0993 40.9646 18.0993C40.9244 18.0993 40.8238 18.1596 40.7635 18.2401Z" fill="#410EB5"/>
<path d="M41.769 18.2401C41.5277 18.4613 41.6081 37.0029 41.8293 37.0029C41.9701 37.0029 42.0304 33.725 42.0304 27.5511C42.0304 22.3426 42.0103 18.0993 41.9701 18.0993C41.9299 18.0993 41.8293 18.1596 41.769 18.2401Z" fill="#410EB5"/>
<path d="M42.6337 27.531C42.6337 33.7048 42.6941 37.0029 42.8348 37.0029C42.9756 37.0029 43.0359 33.7652 43.0359 27.6718C43.0359 21.6588 42.9555 18.2803 42.8348 18.1998C42.6941 18.1194 42.6337 21.2767 42.6337 27.531Z" fill="#410EB5"/>
<path d="M43.6392 27.531C43.6392 33.7048 43.6996 37.0029 43.8403 37.0029C43.9811 37.0029 44.0414 33.7652 44.0414 27.6718C44.0414 21.6588 43.961 18.2803 43.8403 18.1998C43.6996 18.1194 43.6392 21.2767 43.6392 27.531Z" fill="#410EB5"/>
</svg>
