<svg fill="#000000" xmlns="http://www.w3.org/2000/svg"  viewBox="0 0 30 30" width="20px" height="20px"><path d="M 5 4 A 1.0001 1.0001 0 0 0 4 5 L 4 8 L 6 8 L 6 6 L 8 6 L 8 4 L 5 4 z M 10 4 L 10 6 L 14 6 L 14 4 L 10 4 z M 16 4 L 16 6 L 20 6 L 20 4 L 16 4 z M 22 4 L 22 6 L 24 6 L 24 8 L 26 8 L 26 5 A 1.0001 1.0001 0 0 0 25 4 L 22 4 z M 4 10 L 4 14 L 6 14 L 6 10 L 4 10 z M 11 10 A 1.0001 1.0001 0 1 0 11 12 L 19 12 A 1.0001 1.0001 0 1 0 19 10 L 11 10 z M 24 10 L 24 14 L 26 14 L 26 10 L 24 10 z M 11 14 A 1.0001 1.0001 0 1 0 11 16 L 16 16 A 1.0001 1.0001 0 1 0 16 14 L 11 14 z M 4 16 L 4 20 L 6 20 L 6 16 L 4 16 z M 24 16 L 24 20 L 26 20 L 26 16 L 24 16 z M 11 18 A 1.0001 1.0001 0 1 0 11 20 L 19 20 A 1.0001 1.0001 0 1 0 19 18 L 11 18 z M 4 22 L 4 25 A 1.0001 1.0001 0 0 0 5 26 L 8 26 L 8 24 L 6 24 L 6 22 L 4 22 z M 24 22 L 24 24 L 22 24 L 22 26 L 25 26 A 1.0001 1.0001 0 0 0 26 25 L 26 22 L 24 22 z M 10 24 L 10 26 L 14 26 L 14 24 L 10 24 z M 16 24 L 16 26 L 20 26 L 20 24 L 16 24 z"/></svg>